<svg xmlns="http://www.w3.org/2000/svg" viewBox="0 0 716.51 465.24"><defs><style>.cls-1,.cls-10,.cls-22{fill:#212a5e;}.cls-1{opacity:0.04;}.cls-1,.cls-12,.cls-16,.cls-19,.cls-2,.cls-20,.cls-21,.cls-22,.cls-23,.cls-30,.cls-8{isolation:isolate;}.cls-12,.cls-16,.cls-19,.cls-2,.cls-23,.cls-9{fill:#d5e7db;}.cls-2{opacity:0.1;}.cls-3{opacity:0.31;}.cls-31,.cls-32,.cls-4{fill:none;}.cls-4{stroke:#000;}.cls-12,.cls-16,.cls-19,.cls-4,.cls-6,.cls-7,.cls-9{stroke-miterlimit:10;}.cls-5{fill:#008dc4;}.cls-11,.cls-14,.cls-15,.cls-17,.cls-18,.cls-25,.cls-28,.cls-29,.cls-31,.cls-33,.cls-34,.cls-35,.cls-36,.cls-5,.cls-6,.cls-7{stroke:#263238;}.cls-11,.cls-14,.cls-15,.cls-17,.cls-18,.cls-25,.cls-28,.cls-29,.cls-31,.cls-32,.cls-33,.cls-34,.cls-35,.cls-36,.cls-5{stroke-linejoin:round;}.cls-35,.cls-6,.cls-7{fill:#92e3a9;}.cls-7{stroke-width:0.5px;}.cls-12,.cls-9{stroke:#969696;}.cls-11,.cls-15{fill:#fff;}.cls-11,.cls-25,.cls-28{stroke-linecap:round;}.cls-12{stroke-width:2px;}.cls-13,.cls-14,.cls-25{fill:#263238;}.cls-16{stroke:#212121;}.cls-17{fill:#545454;}.cls-18{fill:gray;}.cls-19{stroke:#353535;}.cls-20{fill:#d80000;}.cls-21{fill:#05e273;}.cls-24,.cls-27{opacity:0.25;}.cls-26{opacity:0.33;}.cls-28{fill:#563c03;}.cls-29{fill:#b8b8b8;}.cls-30{fill:#fc5959;}.cls-32{stroke:#5e5e5e;}.cls-33{fill:#1c4701;}.cls-34{fill:#ffff5f;}.cls-36{fill:#c7c7c7;}</style></defs><g id="Layer_2" data-name="Layer 2"><g id="Character"><path class="cls-1" d="M61.9,407.05h627c2.33-9.25,15.81-65.25,16.42-124,.67-64.38-52.3-150.21-109.3-179.72S449.88-1.32,367.4,0,234,40.25,219.2,66.4s-35.54,48.95-105.27,85.17S14,228,4.62,272.94C-4.36,315.93,38.24,389.62,61.9,407.05Z"/><path class="cls-2" d="M61.9,407.05h627c2.33-9.25,15.81-65.25,16.42-124,.67-64.38-52.3-150.21-109.3-179.72S449.88-1.32,367.4,0,234,40.25,219.2,66.4s-35.54,48.95-105.27,85.17S14,228,4.62,272.94C-4.36,315.93,38.24,389.62,61.9,407.05Z"/><g class="cls-3"><polyline class="cls-4" points="0 359.52 7.48 359.52 7.48 161.47 38.12 161.47 38.12 81.22 87.36 81.22 87.36 229 105.97 229 105.97 170.21 147.55 170.21 147.55 183.16 183.11 183.16 183.11 357.91 197.33 357.91 197.33 326.08 236.18 326.08 236.18 357.37 254.78 357.37 254.78 134.13 317.7 134.13 317.7 347.66 335.75 347.66"/><rect class="cls-4" x="7.3" y="161.47" width="30.83" height="3.55"/><rect class="cls-4" x="37.98" y="81.22" width="49.39" height="3.45"/><rect class="cls-4" x="109.88" y="162.88" width="7.19" height="7.32"/><rect class="cls-4" x="132.17" y="165.96" width="3.6" height="4.25"/><rect class="cls-4" x="147.55" y="183.16" width="35.68" height="4.3"/><rect class="cls-4" x="254.78" y="130.92" width="62.91" height="3.21"/><rect class="cls-4" x="270.95" y="124.54" width="24.93" height="6.38"/><polyline class="cls-4" points="290.61 124.78 290.61 118.87 308.82 118.87 308.82 130.69"/><polyline class="cls-4" points="170.54 181.39 170.54 133.65 228.2 133.65 228.2 173.21 248.04 173.21 248.04 105.91 322.03 105.91 322.03 187.3 326.75 187.3"/><polyline class="cls-4" points="129.03 157.75 129.03 105 89.82 105"/><rect class="cls-4" x="41.85" y="91.36" width="4.95" height="9.55"/><rect class="cls-4" x="50.76" y="91.36" width="4.95" height="9.55"/><rect class="cls-4" x="59.67" y="91.36" width="4.95" height="9.55"/><rect class="cls-4" x="68.58" y="91.36" width="4.95" height="9.55"/><rect class="cls-4" x="77.49" y="91.36" width="4.95" height="9.55"/><rect class="cls-4" x="41.85" y="107.5" width="4.95" height="9.55"/><rect class="cls-4" x="50.76" y="107.5" width="4.95" height="9.55"/><rect class="cls-4" x="59.67" y="107.5" width="4.95" height="9.55"/><rect class="cls-4" x="68.58" y="107.5" width="4.95" height="9.55"/><rect class="cls-4" x="77.49" y="107.5" width="4.95" height="9.55"/><rect class="cls-4" x="41.85" y="123.64" width="4.95" height="9.55"/><rect class="cls-4" x="50.76" y="123.64" width="4.95" height="9.55"/><rect class="cls-4" x="59.67" y="123.64" width="4.95" height="9.55"/><rect class="cls-4" x="68.58" y="123.64" width="4.95" height="9.55"/><rect class="cls-4" x="77.49" y="123.64" width="4.95" height="9.55"/><rect class="cls-4" x="41.85" y="139.79" width="4.95" height="9.55"/><rect class="cls-4" x="50.76" y="139.79" width="4.95" height="9.55"/><rect class="cls-4" x="59.67" y="139.79" width="4.95" height="9.55"/><rect class="cls-4" x="68.58" y="139.79" width="4.95" height="9.55"/><rect class="cls-4" x="77.49" y="139.79" width="4.95" height="9.55"/><rect class="cls-4" x="41.85" y="155.93" width="4.95" height="9.55"/><rect class="cls-4" x="50.76" y="155.93" width="4.95" height="9.55"/><rect class="cls-4" x="59.67" y="155.93" width="4.95" height="9.55"/><rect class="cls-4" x="68.58" y="155.93" width="4.95" height="9.55"/><rect class="cls-4" x="77.49" y="155.93" width="4.95" height="9.55"/><rect class="cls-4" x="41.85" y="172.07" width="4.95" height="9.55"/><rect class="cls-4" x="50.76" y="172.07" width="4.95" height="9.55"/><rect class="cls-4" x="59.67" y="172.07" width="4.95" height="9.55"/><rect class="cls-4" x="68.58" y="172.07" width="4.95" height="9.55"/><rect class="cls-4" x="77.49" y="172.07" width="4.95" height="9.55"/><rect class="cls-4" x="11.47" y="172.07" width="4.95" height="9.55"/><rect class="cls-4" x="20.38" y="172.07" width="4.95" height="9.55"/><rect class="cls-4" x="29.29" y="172.07" width="4.95" height="9.55"/><rect class="cls-4" x="11.47" y="187.76" width="4.95" height="9.55"/><rect class="cls-4" x="20.38" y="187.76" width="4.95" height="9.55"/><rect class="cls-4" x="29.29" y="187.76" width="4.95" height="9.55"/><rect class="cls-4" x="11.47" y="203.45" width="4.95" height="9.55"/><rect class="cls-4" x="20.38" y="203.45" width="4.95" height="9.55"/><rect class="cls-4" x="29.29" y="203.45" width="4.95" height="9.55"/><rect class="cls-4" x="11.47" y="219.13" width="4.95" height="9.55"/><rect class="cls-4" x="20.38" y="219.13" width="4.95" height="9.55"/><rect class="cls-4" x="29.29" y="219.13" width="4.95" height="9.55"/><rect class="cls-4" x="11.47" y="234.82" width="4.95" height="9.55"/><rect class="cls-4" x="20.38" y="234.82" width="4.95" height="9.55"/><rect class="cls-4" x="29.29" y="234.82" width="4.95" height="9.55"/><rect class="cls-4" x="11.47" y="250.51" width="4.95" height="9.55"/><rect class="cls-4" x="20.38" y="250.51" width="4.95" height="9.55"/><rect class="cls-4" x="29.29" y="250.51" width="4.95" height="9.55"/><rect class="cls-4" x="11.47" y="266.2" width="4.95" height="9.55"/><rect class="cls-4" x="20.38" y="266.2" width="4.95" height="9.55"/><rect class="cls-4" x="29.29" y="266.2" width="4.95" height="9.55"/><rect class="cls-4" x="11.47" y="281.89" width="4.95" height="9.55"/><rect class="cls-4" x="20.38" y="281.89" width="4.95" height="9.55"/><rect class="cls-4" x="29.29" y="281.89" width="4.95" height="9.55"/><rect class="cls-4" x="11.47" y="297.57" width="4.95" height="9.55"/><rect class="cls-4" x="20.38" y="297.57" width="4.95" height="9.55"/><rect class="cls-4" x="29.29" y="297.57" width="4.95" height="9.55"/><rect class="cls-4" x="11.47" y="313.26" width="4.95" height="9.55"/><rect class="cls-4" x="20.38" y="313.26" width="4.95" height="9.55"/><rect class="cls-4" x="29.29" y="313.26" width="4.95" height="9.55"/><rect class="cls-4" x="11.47" y="328.95" width="4.95" height="9.55"/><rect class="cls-4" x="20.38" y="328.95" width="4.95" height="9.55"/><rect class="cls-4" x="29.29" y="328.95" width="4.95" height="9.55"/><rect class="cls-4" x="90.92" y="236.64" width="4.95" height="9.55"/><rect class="cls-4" x="99.83" y="236.64" width="4.95" height="9.55"/><rect class="cls-4" x="90.92" y="252.33" width="4.95" height="9.55"/><rect class="cls-4" x="99.83" y="252.33" width="4.95" height="9.55"/><rect class="cls-4" x="90.92" y="268.02" width="4.95" height="9.55"/><rect class="cls-4" x="99.83" y="268.02" width="4.95" height="9.55"/><rect class="cls-4" x="90.92" y="283.7" width="4.95" height="9.55"/><rect class="cls-4" x="99.83" y="283.7" width="4.95" height="9.55"/><rect class="cls-4" x="90.92" y="299.39" width="4.95" height="9.55"/><rect class="cls-4" x="99.83" y="299.39" width="4.95" height="9.55"/><rect class="cls-4" x="90.92" y="315.08" width="4.95" height="9.55"/><rect class="cls-4" x="99.83" y="315.08" width="4.95" height="9.55"/><rect class="cls-4" x="90.92" y="330.77" width="4.95" height="9.55"/><rect class="cls-4" x="99.83" y="330.77" width="4.95" height="9.55"/><rect class="cls-4" x="41.85" y="188.21" width="4.95" height="9.55"/><rect class="cls-4" x="50.76" y="188.21" width="4.95" height="9.55"/><rect class="cls-4" x="59.67" y="188.21" width="4.95" height="9.55"/><rect class="cls-4" x="68.58" y="188.21" width="4.95" height="9.55"/><rect class="cls-4" x="77.49" y="188.21" width="4.95" height="9.55"/><rect class="cls-4" x="41.85" y="204.36" width="4.95" height="9.55"/><rect class="cls-4" x="50.76" y="204.36" width="4.95" height="9.55"/><rect class="cls-4" x="59.67" y="204.36" width="4.95" height="9.55"/><rect class="cls-4" x="68.58" y="204.36" width="4.95" height="9.55"/><rect class="cls-4" x="77.49" y="204.36" width="4.95" height="9.55"/><rect class="cls-4" x="41.85" y="220.5" width="4.95" height="9.55"/><rect class="cls-4" x="50.76" y="220.5" width="4.95" height="9.55"/><rect class="cls-4" x="59.67" y="220.5" width="4.95" height="9.55"/><rect class="cls-4" x="68.58" y="220.5" width="4.95" height="9.55"/><rect class="cls-4" x="77.49" y="220.5" width="4.95" height="9.55"/><rect class="cls-4" x="41.85" y="236.64" width="4.95" height="9.55"/><rect class="cls-4" x="50.76" y="236.64" width="4.95" height="9.55"/><rect class="cls-4" x="59.67" y="236.64" width="4.95" height="9.55"/><rect class="cls-4" x="68.58" y="236.64" width="4.95" height="9.55"/><rect class="cls-4" x="77.49" y="236.64" width="4.95" height="9.55"/><rect class="cls-4" x="41.85" y="252.78" width="4.95" height="9.55"/><rect class="cls-4" x="50.76" y="252.78" width="4.95" height="9.55"/><rect class="cls-4" x="59.67" y="252.78" width="4.95" height="9.55"/><rect class="cls-4" x="68.58" y="252.78" width="4.95" height="9.55"/><rect class="cls-4" x="77.49" y="252.78" width="4.95" height="9.55"/><rect class="cls-4" x="41.85" y="268.93" width="4.95" height="9.55"/><rect class="cls-4" x="50.76" y="268.93" width="4.95" height="9.55"/><rect class="cls-4" x="59.67" y="268.93" width="4.95" height="9.55"/><rect class="cls-4" x="68.58" y="268.93" width="4.95" height="9.55"/><rect class="cls-4" x="77.49" y="268.93" width="4.95" height="9.55"/><rect class="cls-4" x="41.85" y="285.07" width="4.95" height="9.55"/><rect class="cls-4" x="50.76" y="285.07" width="4.95" height="9.55"/><rect class="cls-4" x="59.67" y="285.07" width="4.95" height="9.55"/><rect class="cls-4" x="68.58" y="285.07" width="4.95" height="9.55"/><rect class="cls-4" x="77.49" y="285.07" width="4.95" height="9.55"/><rect class="cls-4" x="41.85" y="301.21" width="4.95" height="9.55"/><rect class="cls-4" x="50.76" y="301.21" width="4.95" height="9.55"/><rect class="cls-4" x="59.67" y="301.21" width="4.95" height="9.55"/><rect class="cls-4" x="68.58" y="301.21" width="4.95" height="9.55"/><rect class="cls-4" x="77.49" y="301.21" width="4.95" height="9.55"/><rect class="cls-4" x="41.85" y="317.35" width="4.95" height="9.55"/><rect class="cls-4" x="50.76" y="317.35" width="4.95" height="9.55"/><rect class="cls-4" x="59.67" y="317.35" width="4.95" height="9.55"/><rect class="cls-4" x="68.58" y="317.35" width="4.95" height="9.55"/><rect class="cls-4" x="77.49" y="317.35" width="4.95" height="9.55"/><rect class="cls-4" x="41.85" y="333.95" width="4.95" height="9.55"/><rect class="cls-4" x="50.76" y="333.95" width="4.95" height="9.55"/><rect class="cls-4" x="59.67" y="333.95" width="4.95" height="9.55"/><rect class="cls-4" x="68.58" y="333.95" width="4.95" height="9.55"/><rect class="cls-4" x="77.49" y="333.95" width="4.95" height="9.55"/><line class="cls-4" x1="38.12" y1="165.02" x2="38.12" y2="359.64"/><line class="cls-4" x1="113.81" y1="174.12" x2="113.81" y2="356.91"/><line class="cls-4" x1="123.49" y1="174.12" x2="123.49" y2="356.91"/><line class="cls-4" x1="133.18" y1="174.12" x2="133.18" y2="356.91"/><line class="cls-4" x1="142.87" y1="174.12" x2="142.87" y2="356.91"/><line class="cls-4" x1="152.55" y1="192.31" x2="152.55" y2="356.91"/><line class="cls-4" x1="162.24" y1="192.31" x2="162.24" y2="356.91"/><line class="cls-4" x1="171.93" y1="192.31" x2="171.93" y2="356.91"/><rect class="cls-4" x="256.8" y="204.58" width="58.12" height="5.46"/><rect class="cls-4" x="256.8" y="195.05" width="58.12" height="5.46"/><rect class="cls-4" x="256.8" y="185.52" width="58.12" height="5.46"/><rect class="cls-4" x="256.8" y="175.98" width="58.12" height="5.46"/><rect class="cls-4" x="256.8" y="166.45" width="58.12" height="5.46"/><rect class="cls-4" x="256.8" y="156.92" width="58.12" height="5.46"/><rect class="cls-4" x="256.8" y="147.38" width="58.12" height="5.46"/><rect class="cls-4" x="256.8" y="137.85" width="58.12" height="5.46"/><rect class="cls-4" x="256.8" y="214.13" width="58.12" height="5.46"/><rect class="cls-4" x="256.8" y="223.68" width="58.12" height="5.46"/><rect class="cls-4" x="256.8" y="233.23" width="58.12" height="5.46"/><rect class="cls-4" x="256.8" y="242.78" width="58.12" height="5.46"/><rect class="cls-4" x="256.8" y="252.33" width="58.12" height="5.46"/><rect class="cls-4" x="256.8" y="261.88" width="58.12" height="5.46"/><rect class="cls-4" x="256.8" y="271.43" width="58.12" height="5.46"/><rect class="cls-4" x="256.8" y="280.98" width="58.12" height="5.46"/><rect class="cls-4" x="256.8" y="290.53" width="58.12" height="5.46"/><rect class="cls-4" x="256.8" y="300.07" width="58.12" height="5.46"/><rect class="cls-4" x="256.8" y="309.62" width="58.12" height="5.46"/><rect class="cls-4" x="256.8" y="319.17" width="58.12" height="5.46"/><rect class="cls-4" x="256.8" y="328.72" width="58.12" height="5.46"/><rect class="cls-4" x="256.8" y="338.27" width="58.12" height="5.46"/><rect class="cls-4" x="256.8" y="347.82" width="58.12" height="5.46"/><rect class="cls-4" x="256.8" y="357.37" width="58.12" height="5.46"/><rect class="cls-4" x="202.83" y="310.99" width="29.06" height="15.01"/><rect class="cls-4" x="209.75" y="284.61" width="15.22" height="26.37"/><line class="cls-4" x1="87.36" y1="229" x2="87.36" y2="359.28"/><line class="cls-4" x1="254.28" y1="214.72" x2="183.71" y2="214.72"/><line class="cls-4" x1="254.28" y1="222.5" x2="183.71" y2="222.5"/><rect class="cls-4" x="186.87" y="228.32" width="10.76" height="7.77"/><rect class="cls-4" x="200.14" y="228.32" width="10.76" height="7.77"/><rect class="cls-4" x="213.42" y="228.32" width="10.76" height="7.77"/><rect class="cls-4" x="226.69" y="228.32" width="10.76" height="7.77"/><rect class="cls-4" x="239.96" y="228.32" width="10.76" height="7.77"/><rect class="cls-4" x="186.87" y="240.37" width="10.76" height="7.77"/><rect class="cls-4" x="200.14" y="240.37" width="10.76" height="7.77"/><rect class="cls-4" x="213.42" y="240.37" width="10.76" height="7.77"/><rect class="cls-4" x="226.69" y="240.37" width="10.76" height="7.77"/><rect class="cls-4" x="239.96" y="240.37" width="10.76" height="7.77"/><rect class="cls-4" x="186.87" y="252.42" width="10.76" height="7.77"/><rect class="cls-4" x="200.14" y="252.42" width="10.76" height="7.77"/><rect class="cls-4" x="213.42" y="252.42" width="10.76" height="7.77"/><rect class="cls-4" x="226.69" y="252.42" width="10.76" height="7.77"/><rect class="cls-4" x="239.96" y="252.42" width="10.76" height="7.77"/><rect class="cls-4" x="186.87" y="274.18" width="10.76" height="7.77"/><rect class="cls-4" x="200.14" y="274.18" width="10.76" height="7.77"/><rect class="cls-4" x="213.42" y="274.18" width="10.76" height="7.77"/><rect class="cls-4" x="226.69" y="274.18" width="10.76" height="7.77"/><rect class="cls-4" x="239.96" y="274.18" width="10.76" height="7.77"/><polyline class="cls-4" points="444.23 357.37 429.82 357.37 429.82 199.88 366.9 199.88 366.9 347.66 348.85 347.66"/><rect class="cls-4" x="366.91" y="196.67" width="62.91" height="3.21" transform="translate(796.73 396.55) rotate(180)"/><rect class="cls-4" x="388.72" y="190.29" width="24.93" height="6.38" transform="translate(802.37 386.96) rotate(180)"/><polyline class="cls-4" points="394 190.53 394 184.62 375.78 184.62 375.78 196.44"/><polyline class="cls-4" points="445.86 173.21 436.57 173.21 436.57 105.91 372.91 105.91 372.91 187.3 355.82 187.3"/><polyline class="cls-4" points="326.35 271.69 326.35 163.87 355.82 163.87 355.82 266.92 363.08 266.92"/><rect class="cls-4" x="369.68" y="204.58" width="15.86" height="5.46" transform="translate(755.22 414.62) rotate(180)"/><rect class="cls-4" x="369.68" y="214.13" width="15.86" height="5.46" transform="translate(755.22 433.72) rotate(180)"/><rect class="cls-4" x="369.68" y="223.68" width="15.86" height="5.46" transform="translate(755.22 452.82) rotate(180)"/><rect class="cls-4" x="369.68" y="233.23" width="15.86" height="5.46" transform="translate(755.22 471.92) rotate(180)"/><rect class="cls-4" x="369.68" y="242.78" width="15.86" height="5.46" transform="translate(755.22 491.02) rotate(180)"/><rect class="cls-4" x="369.68" y="252.33" width="15.86" height="5.46" transform="translate(755.22 510.12) rotate(180)"/><rect class="cls-4" x="369.68" y="261.88" width="15.86" height="5.46" transform="translate(755.22 529.21) rotate(180)"/><rect class="cls-4" x="369.68" y="271.43" width="15.86" height="5.46" transform="translate(755.22 548.31) rotate(180)"/><rect class="cls-4" x="369.68" y="280.98" width="15.86" height="5.46" transform="translate(755.22 567.41) rotate(180)"/><rect class="cls-4" x="369.68" y="290.53" width="15.86" height="5.46" transform="translate(755.22 586.51) rotate(180)"/><rect class="cls-4" x="369.68" y="300.08" width="15.86" height="5.46" transform="translate(755.22 605.61) rotate(180)"/><rect class="cls-4" x="369.68" y="309.62" width="15.86" height="5.46" transform="translate(755.22 624.7) rotate(180)"/><rect class="cls-4" x="369.68" y="319.17" width="15.86" height="5.46" transform="translate(755.22 643.8) rotate(180)"/><rect class="cls-4" x="369.68" y="328.72" width="15.86" height="5.46" transform="translate(755.22 662.9) rotate(180)"/><rect class="cls-4" x="369.68" y="338.27" width="15.86" height="5.46" transform="translate(755.22 682) rotate(180)"/><rect class="cls-4" x="369.68" y="347.82" width="15.86" height="5.46" transform="translate(755.22 701.1) rotate(180)"/><rect class="cls-4" x="369.68" y="357.37" width="15.86" height="5.46" transform="translate(755.22 720.2) rotate(180)"/><rect class="cls-4" x="390.78" y="204.58" width="15.86" height="5.46" transform="translate(797.42 414.62) rotate(180)"/><rect class="cls-4" x="390.78" y="214.13" width="15.86" height="5.46" transform="translate(797.42 433.72) rotate(180)"/><rect class="cls-4" x="390.78" y="223.68" width="15.86" height="5.46" transform="translate(797.42 452.82) rotate(180)"/><rect class="cls-4" x="390.78" y="233.23" width="15.86" height="5.46" transform="translate(797.42 471.92) rotate(180)"/><rect class="cls-4" x="390.78" y="242.78" width="15.86" height="5.46" transform="translate(797.42 491.02) rotate(180)"/><rect class="cls-4" x="390.78" y="252.33" width="15.86" height="5.46" transform="translate(797.42 510.12) rotate(180)"/><rect class="cls-4" x="390.78" y="261.88" width="15.86" height="5.46" transform="translate(797.42 529.21) rotate(180)"/><rect class="cls-4" x="390.78" y="271.43" width="15.86" height="5.46" transform="translate(797.42 548.31) rotate(180)"/><rect class="cls-4" x="390.78" y="280.98" width="15.86" height="5.46" transform="translate(797.42 567.41) rotate(180)"/><rect class="cls-4" x="390.78" y="290.53" width="15.86" height="5.46" transform="translate(797.42 586.51) rotate(180)"/><rect class="cls-4" x="390.78" y="300.08" width="15.86" height="5.46" transform="translate(797.42 605.61) rotate(180)"/><rect class="cls-4" x="390.78" y="309.62" width="15.86" height="5.46" transform="translate(797.42 624.7) rotate(180)"/><rect class="cls-4" x="390.78" y="319.17" width="15.86" height="5.46" transform="translate(797.42 643.8) rotate(180)"/><rect class="cls-4" x="390.78" y="328.72" width="15.86" height="5.46" transform="translate(797.42 662.9) rotate(180)"/><rect class="cls-4" x="390.78" y="338.27" width="15.86" height="5.46" transform="translate(797.42 682) rotate(180)"/><rect class="cls-4" x="390.78" y="347.82" width="15.86" height="5.46" transform="translate(797.42 701.1) rotate(180)"/><rect class="cls-4" x="390.78" y="357.37" width="15.86" height="5.46" transform="translate(797.42 720.2) rotate(180)"/><rect class="cls-4" x="411.88" y="204.58" width="15.86" height="5.46" transform="translate(839.61 414.62) rotate(180)"/><rect class="cls-4" x="411.88" y="214.13" width="15.86" height="5.46" transform="translate(839.61 433.72) rotate(180)"/><rect class="cls-4" x="411.88" y="223.68" width="15.86" height="5.46" transform="translate(839.61 452.82) rotate(180)"/><rect class="cls-4" x="411.88" y="233.23" width="15.86" height="5.46" transform="translate(839.61 471.92) rotate(180)"/><rect class="cls-4" x="411.88" y="242.78" width="15.86" height="5.46" transform="translate(839.61 491.02) rotate(180)"/><rect class="cls-4" x="411.88" y="252.33" width="15.86" height="5.46" transform="translate(839.61 510.12) rotate(180)"/><rect class="cls-4" x="411.88" y="261.88" width="15.86" height="5.46" transform="translate(839.61 529.21) rotate(180)"/><rect class="cls-4" x="411.88" y="271.43" width="15.86" height="5.46" transform="translate(839.61 548.31) rotate(180)"/><rect class="cls-4" x="411.88" y="280.98" width="15.86" height="5.46" transform="translate(839.61 567.41) rotate(180)"/><rect class="cls-4" x="411.88" y="290.53" width="15.86" height="5.46" transform="translate(839.61 586.51) rotate(180)"/><rect class="cls-4" x="411.88" y="300.08" width="15.86" height="5.46" transform="translate(839.61 605.61) rotate(180)"/><rect class="cls-4" x="411.88" y="309.62" width="15.86" height="5.46" transform="translate(839.61 624.7) rotate(180)"/><rect class="cls-4" x="411.88" y="319.17" width="15.86" height="5.46" transform="translate(839.61 643.8) rotate(180)"/><rect class="cls-4" x="411.88" y="328.72" width="15.86" height="5.46" transform="translate(839.61 662.9) rotate(180)"/><rect class="cls-4" x="411.88" y="338.27" width="15.86" height="5.46" transform="translate(839.61 682) rotate(180)"/><rect class="cls-4" x="411.88" y="347.82" width="15.86" height="5.46" transform="translate(839.61 701.1) rotate(180)"/><rect class="cls-4" x="411.88" y="357.37" width="15.86" height="5.46" transform="translate(839.61 720.2) rotate(180)"/><line class="cls-4" x1="430.33" y1="214.72" x2="447.49" y2="214.72"/><line class="cls-4" x1="430.33" y1="222.5" x2="445.86" y2="222.5"/><rect class="cls-4" x="433.87" y="228.32" width="10.76" height="7.77" transform="translate(878.51 464.42) rotate(180)"/><rect class="cls-4" x="433.87" y="240.37" width="10.76" height="7.77" transform="translate(878.51 488.52) rotate(180)"/><rect class="cls-4" x="433.87" y="252.42" width="10.76" height="7.77" transform="translate(878.51 512.61) rotate(180)"/><rect class="cls-4" x="433.87" y="274.18" width="10.76" height="7.77" transform="translate(878.51 556.13) rotate(180)"/></g><g class="cls-3"><polyline class="cls-4" points="429.59 360.11 435.76 360.11 435.76 196.88 461.01 196.88 461.01 130.74 501.59 130.74 501.59 252.54 516.92 252.54 516.92 204.09 551.19 204.09 551.19 214.75 580.5 214.75 580.5 358.77 592.22 358.77 592.22 332.55 624.24 332.55 624.24 358.33 630.49 358.33"/><rect class="cls-4" x="435.61" y="196.88" width="25.4" height="2.93"/><rect class="cls-4" x="460.89" y="130.74" width="40.7" height="2.85"/><rect class="cls-4" x="520.15" y="198.04" width="5.93" height="6.04"/><rect class="cls-4" x="538.52" y="200.58" width="2.96" height="3.51"/><rect class="cls-4" x="551.19" y="214.75" width="29.41" height="3.54"/><polyline class="cls-4" points="535.93 193.81 535.93 150.34 503.62 150.34"/><rect class="cls-4" x="464.08" y="139.1" width="4.08" height="7.87"/><rect class="cls-4" x="471.42" y="139.1" width="4.08" height="7.87"/><rect class="cls-4" x="478.77" y="139.1" width="4.08" height="7.87"/><rect class="cls-4" x="486.11" y="139.1" width="4.08" height="7.87"/><rect class="cls-4" x="493.45" y="139.1" width="4.08" height="7.87"/><rect class="cls-4" x="464.08" y="152.4" width="4.08" height="7.87"/><rect class="cls-4" x="471.42" y="152.4" width="4.08" height="7.87"/><rect class="cls-4" x="478.77" y="152.4" width="4.08" height="7.87"/><rect class="cls-4" x="486.11" y="152.4" width="4.08" height="7.87"/><rect class="cls-4" x="493.45" y="152.4" width="4.08" height="7.87"/><rect class="cls-4" x="464.08" y="165.7" width="4.08" height="7.87"/><rect class="cls-4" x="471.42" y="165.7" width="4.08" height="7.87"/><rect class="cls-4" x="478.77" y="165.7" width="4.08" height="7.87"/><rect class="cls-4" x="486.11" y="165.7" width="4.08" height="7.87"/><rect class="cls-4" x="493.45" y="165.7" width="4.08" height="7.87"/><rect class="cls-4" x="464.08" y="179.01" width="4.08" height="7.87"/><rect class="cls-4" x="471.42" y="179.01" width="4.08" height="7.87"/><rect class="cls-4" x="478.77" y="179.01" width="4.08" height="7.87"/><rect class="cls-4" x="486.11" y="179.01" width="4.08" height="7.87"/><rect class="cls-4" x="493.45" y="179.01" width="4.08" height="7.87"/><rect class="cls-4" x="464.08" y="192.31" width="4.08" height="7.87"/><rect class="cls-4" x="471.42" y="192.31" width="4.08" height="7.87"/><rect class="cls-4" x="478.77" y="192.31" width="4.08" height="7.87"/><rect class="cls-4" x="486.11" y="192.31" width="4.08" height="7.87"/><rect class="cls-4" x="493.45" y="192.31" width="4.08" height="7.87"/><rect class="cls-4" x="464.08" y="205.62" width="4.08" height="7.87"/><rect class="cls-4" x="471.42" y="205.62" width="4.08" height="7.87"/><rect class="cls-4" x="478.77" y="205.62" width="4.08" height="7.87"/><rect class="cls-4" x="486.11" y="205.62" width="4.08" height="7.87"/><rect class="cls-4" x="493.45" y="205.62" width="4.08" height="7.87"/><rect class="cls-4" x="439.04" y="205.62" width="4.08" height="7.87"/><rect class="cls-4" x="446.39" y="205.62" width="4.08" height="7.87"/><rect class="cls-4" x="453.73" y="205.62" width="4.08" height="7.87"/><rect class="cls-4" x="439.04" y="218.55" width="4.08" height="7.87"/><rect class="cls-4" x="446.39" y="218.55" width="4.08" height="7.87"/><rect class="cls-4" x="453.73" y="218.55" width="4.08" height="7.87"/><rect class="cls-4" x="439.04" y="231.47" width="4.08" height="7.87"/><rect class="cls-4" x="446.39" y="231.47" width="4.08" height="7.87"/><rect class="cls-4" x="453.73" y="231.47" width="4.08" height="7.87"/><rect class="cls-4" x="439.04" y="244.4" width="4.08" height="7.87"/><rect class="cls-4" x="446.39" y="244.4" width="4.08" height="7.87"/><rect class="cls-4" x="453.73" y="244.4" width="4.08" height="7.87"/><rect class="cls-4" x="439.04" y="257.33" width="4.08" height="7.87"/><rect class="cls-4" x="446.39" y="257.33" width="4.08" height="7.87"/><rect class="cls-4" x="453.73" y="257.33" width="4.08" height="7.87"/><rect class="cls-4" x="439.04" y="270.26" width="4.08" height="7.87"/><rect class="cls-4" x="446.39" y="270.26" width="4.08" height="7.87"/><rect class="cls-4" x="453.73" y="270.26" width="4.08" height="7.87"/><rect class="cls-4" x="439.04" y="283.19" width="4.08" height="7.87"/><rect class="cls-4" x="446.39" y="283.19" width="4.08" height="7.87"/><rect class="cls-4" x="453.73" y="283.19" width="4.08" height="7.87"/><rect class="cls-4" x="439.04" y="296.12" width="4.08" height="7.87"/><rect class="cls-4" x="446.39" y="296.12" width="4.08" height="7.87"/><rect class="cls-4" x="453.73" y="296.12" width="4.08" height="7.87"/><rect class="cls-4" x="439.04" y="309.05" width="4.08" height="7.87"/><rect class="cls-4" x="446.39" y="309.05" width="4.08" height="7.87"/><rect class="cls-4" x="453.73" y="309.05" width="4.08" height="7.87"/><rect class="cls-4" x="439.04" y="321.98" width="4.08" height="7.87"/><rect class="cls-4" x="446.39" y="321.98" width="4.08" height="7.87"/><rect class="cls-4" x="453.73" y="321.98" width="4.08" height="7.87"/><rect class="cls-4" x="439.04" y="334.91" width="4.08" height="7.87"/><rect class="cls-4" x="446.39" y="334.91" width="4.08" height="7.87"/><rect class="cls-4" x="453.73" y="334.91" width="4.08" height="7.87"/><rect class="cls-4" x="504.52" y="258.83" width="4.08" height="7.87"/><rect class="cls-4" x="511.86" y="258.83" width="4.08" height="7.87"/><rect class="cls-4" x="504.52" y="271.76" width="4.08" height="7.87"/><rect class="cls-4" x="511.86" y="271.76" width="4.08" height="7.87"/><rect class="cls-4" x="504.52" y="284.69" width="4.08" height="7.87"/><rect class="cls-4" x="511.86" y="284.69" width="4.08" height="7.87"/><rect class="cls-4" x="504.52" y="297.62" width="4.08" height="7.87"/><rect class="cls-4" x="511.86" y="297.62" width="4.08" height="7.87"/><rect class="cls-4" x="504.52" y="310.55" width="4.08" height="7.87"/><rect class="cls-4" x="511.86" y="310.55" width="4.08" height="7.87"/><rect class="cls-4" x="504.52" y="323.48" width="4.08" height="7.87"/><rect class="cls-4" x="511.86" y="323.48" width="4.08" height="7.87"/><rect class="cls-4" x="504.52" y="336.41" width="4.08" height="7.87"/><rect class="cls-4" x="511.86" y="336.41" width="4.08" height="7.87"/><rect class="cls-4" x="464.08" y="218.92" width="4.08" height="7.87"/><rect class="cls-4" x="471.42" y="218.92" width="4.08" height="7.87"/><rect class="cls-4" x="478.77" y="218.92" width="4.08" height="7.87"/><rect class="cls-4" x="486.11" y="218.92" width="4.08" height="7.87"/><rect class="cls-4" x="493.45" y="218.92" width="4.08" height="7.87"/><rect class="cls-4" x="464.08" y="232.22" width="4.08" height="7.87"/><rect class="cls-4" x="471.42" y="232.22" width="4.08" height="7.87"/><rect class="cls-4" x="478.77" y="232.22" width="4.08" height="7.87"/><rect class="cls-4" x="486.11" y="232.22" width="4.08" height="7.87"/><rect class="cls-4" x="493.45" y="232.22" width="4.08" height="7.87"/><rect class="cls-4" x="464.08" y="245.53" width="4.08" height="7.87"/><rect class="cls-4" x="471.42" y="245.53" width="4.08" height="7.87"/><rect class="cls-4" x="478.77" y="245.53" width="4.08" height="7.87"/><rect class="cls-4" x="486.11" y="245.53" width="4.08" height="7.87"/><rect class="cls-4" x="493.45" y="245.53" width="4.08" height="7.87"/><rect class="cls-4" x="464.08" y="258.83" width="4.08" height="7.87"/><rect class="cls-4" x="471.42" y="258.83" width="4.08" height="7.87"/><rect class="cls-4" x="478.77" y="258.83" width="4.08" height="7.87"/><rect class="cls-4" x="486.11" y="258.83" width="4.08" height="7.87"/><rect class="cls-4" x="493.45" y="258.83" width="4.08" height="7.87"/><rect class="cls-4" x="464.08" y="272.14" width="4.08" height="7.87"/><rect class="cls-4" x="471.42" y="272.14" width="4.08" height="7.87"/><rect class="cls-4" x="478.77" y="272.14" width="4.08" height="7.87"/><rect class="cls-4" x="486.11" y="272.14" width="4.08" height="7.87"/><rect class="cls-4" x="493.45" y="272.14" width="4.08" height="7.87"/><rect class="cls-4" x="464.08" y="285.44" width="4.08" height="7.87"/><rect class="cls-4" x="471.42" y="285.44" width="4.08" height="7.87"/><rect class="cls-4" x="478.77" y="285.44" width="4.08" height="7.87"/><rect class="cls-4" x="486.11" y="285.44" width="4.08" height="7.87"/><rect class="cls-4" x="493.45" y="285.44" width="4.08" height="7.87"/><rect class="cls-4" x="464.08" y="298.74" width="4.08" height="7.87"/><rect class="cls-4" x="471.42" y="298.74" width="4.08" height="7.87"/><rect class="cls-4" x="478.77" y="298.74" width="4.08" height="7.87"/><rect class="cls-4" x="486.11" y="298.74" width="4.08" height="7.87"/><rect class="cls-4" x="493.45" y="298.74" width="4.08" height="7.87"/><rect class="cls-4" x="464.08" y="312.05" width="4.08" height="7.87"/><rect class="cls-4" x="471.42" y="312.05" width="4.08" height="7.87"/><rect class="cls-4" x="478.77" y="312.05" width="4.08" height="7.87"/><rect class="cls-4" x="486.11" y="312.05" width="4.08" height="7.87"/><rect class="cls-4" x="493.45" y="312.05" width="4.08" height="7.87"/><rect class="cls-4" x="464.08" y="325.35" width="4.08" height="7.87"/><rect class="cls-4" x="471.42" y="325.35" width="4.08" height="7.87"/><rect class="cls-4" x="478.77" y="325.35" width="4.08" height="7.87"/><rect class="cls-4" x="486.11" y="325.35" width="4.08" height="7.87"/><rect class="cls-4" x="493.45" y="325.35" width="4.08" height="7.87"/><rect class="cls-4" x="464.08" y="339.03" width="4.08" height="7.87"/><rect class="cls-4" x="471.42" y="339.03" width="4.08" height="7.87"/><rect class="cls-4" x="478.77" y="339.03" width="4.08" height="7.87"/><rect class="cls-4" x="486.11" y="339.03" width="4.08" height="7.87"/><rect class="cls-4" x="493.45" y="339.03" width="4.08" height="7.87"/><line class="cls-4" x1="461.01" y1="199.81" x2="461.01" y2="360.2"/><line class="cls-4" x1="523.38" y1="207.3" x2="523.38" y2="357.95"/><line class="cls-4" x1="531.37" y1="207.3" x2="531.37" y2="357.95"/><line class="cls-4" x1="539.35" y1="207.3" x2="539.35" y2="357.95"/><line class="cls-4" x1="547.33" y1="207.3" x2="547.33" y2="357.95"/><line class="cls-4" x1="555.32" y1="222.29" x2="555.32" y2="357.95"/><line class="cls-4" x1="563.3" y1="222.29" x2="563.3" y2="357.95"/><line class="cls-4" x1="571.28" y1="222.29" x2="571.28" y2="357.95"/><rect class="cls-4" x="596.75" y="320.1" width="23.95" height="12.37"/><rect class="cls-4" x="602.46" y="298.37" width="12.55" height="21.74"/><line class="cls-4" x1="501.59" y1="252.54" x2="501.59" y2="359.91"/><line class="cls-4" x1="639.15" y1="240.77" x2="581" y2="240.77"/><line class="cls-4" x1="639.15" y1="247.17" x2="581" y2="247.17"/><rect class="cls-4" x="640.31" y="171.71" width="75.59" height="2.64"/><rect class="cls-4" x="659.74" y="166.45" width="29.95" height="5.26"/><polyline class="cls-4" points="683.36 166.64 683.36 161.77 705.25 161.77 705.25 171.51"/><rect class="cls-4" x="642.74" y="232.41" width="69.84" height="4.5"/><rect class="cls-4" x="642.74" y="224.55" width="69.84" height="4.5"/><rect class="cls-4" x="642.74" y="216.7" width="69.84" height="4.5"/><rect class="cls-4" x="642.74" y="208.84" width="69.84" height="4.5"/><rect class="cls-4" x="642.74" y="200.98" width="69.84" height="4.5"/><rect class="cls-4" x="642.74" y="193.13" width="69.84" height="4.5"/><rect class="cls-4" x="642.74" y="185.27" width="69.84" height="4.5"/><rect class="cls-4" x="642.74" y="177.41" width="69.84" height="4.5"/><rect class="cls-4" x="642.74" y="240.28" width="69.84" height="4.5"/><rect class="cls-4" x="642.74" y="248.15" width="69.84" height="4.5"/><rect class="cls-4" x="642.74" y="256.02" width="69.84" height="4.5"/><rect class="cls-4" x="642.74" y="263.89" width="69.84" height="4.5"/><rect class="cls-4" x="642.74" y="271.76" width="69.84" height="4.5"/><rect class="cls-4" x="642.74" y="279.63" width="69.84" height="4.5"/><rect class="cls-4" x="642.74" y="287.5" width="69.84" height="4.5"/><rect class="cls-4" x="642.74" y="295.37" width="69.84" height="4.5"/><rect class="cls-4" x="642.74" y="303.24" width="69.84" height="4.5"/><rect class="cls-4" x="642.74" y="311.11" width="69.84" height="4.5"/><rect class="cls-4" x="642.74" y="318.98" width="69.84" height="4.5"/><rect class="cls-4" x="642.74" y="326.85" width="69.84" height="4.5"/><rect class="cls-4" x="642.74" y="334.72" width="69.84" height="4.5"/><rect class="cls-4" x="642.74" y="342.59" width="69.84" height="4.5"/><rect class="cls-4" x="642.74" y="350.46" width="69.84" height="4.5"/><rect class="cls-4" x="642.74" y="358.33" width="69.84" height="4.5"/><rect class="cls-4" x="583.6" y="251.98" width="8.87" height="6.41"/><rect class="cls-4" x="594.54" y="251.98" width="8.87" height="6.41"/><rect class="cls-4" x="605.48" y="251.98" width="8.87" height="6.41"/><rect class="cls-4" x="616.42" y="251.98" width="8.87" height="6.41"/><rect class="cls-4" x="627.36" y="251.98" width="8.87" height="6.41"/><rect class="cls-4" x="583.6" y="261.91" width="8.87" height="6.41"/><rect class="cls-4" x="594.54" y="261.91" width="8.87" height="6.41"/><rect class="cls-4" x="605.48" y="261.91" width="8.87" height="6.41"/><rect class="cls-4" x="616.42" y="261.91" width="8.87" height="6.41"/><rect class="cls-4" x="627.36" y="261.91" width="8.87" height="6.41"/><rect class="cls-4" x="583.6" y="271.83" width="8.87" height="6.41"/><rect class="cls-4" x="594.54" y="271.83" width="8.87" height="6.41"/><rect class="cls-4" x="605.48" y="271.83" width="8.87" height="6.41"/><rect class="cls-4" x="616.42" y="271.83" width="8.87" height="6.41"/><rect class="cls-4" x="627.36" y="271.83" width="8.87" height="6.41"/><rect class="cls-4" x="583.6" y="289.77" width="8.87" height="6.41"/><rect class="cls-4" x="594.54" y="289.77" width="8.87" height="6.41"/><rect class="cls-4" x="605.48" y="289.77" width="8.87" height="6.41"/><rect class="cls-4" x="616.42" y="289.77" width="8.87" height="6.41"/><rect class="cls-4" x="627.36" y="289.77" width="8.87" height="6.41"/><polyline class="cls-4" points="563.21 192.73 563.21 174.59 613.86 174.59 613.86 133.77 635.78 133.77 635.78 112.6 672.82 112.6 672.82 158.71"/></g><path class="cls-5" d="M335.19,57.87A15.45,15.45,0,0,0,327.47,60a20.91,20.91,0,0,0,.32-3.65,21.31,21.31,0,0,0-42.26-3.93,18.84,18.84,0,1,0-6.65,36.47h56.31a15.49,15.49,0,1,0,0-31Z"/><polygon class="cls-6" points="286.11 109.27 286.11 89.98 290.22 89.98 287.26 84.86 284.3 79.73 281.34 84.86 278.38 89.98 282.49 89.98 282.49 109.27 286.11 109.27"/><polygon class="cls-6" points="286.11 154.86 286.11 135.57 290.22 135.57 287.26 130.44 284.3 125.32 281.34 130.44 278.38 135.57 282.49 135.57 282.49 154.86 286.11 154.86"/><polygon class="cls-6" points="322.08 79.73 322.08 99.02 317.97 99.02 320.93 104.15 323.89 109.27 326.86 104.15 329.81 99.02 325.71 99.02 325.71 79.73 322.08 79.73"/><polygon class="cls-6" points="322.08 117.66 322.08 136.96 317.97 136.96 320.93 142.08 323.89 147.21 326.86 142.08 329.81 136.96 325.71 136.96 325.71 117.66 322.08 117.66"/><path class="cls-5" d="M149.4,80.2a9,9,0,0,0-4.48,1.2A12.39,12.39,0,0,0,120.53,77a10.76,10.76,0,0,0-3.86-.72,11,11,0,1,0,0,21.91H149.4a9,9,0,1,0,0-18Z"/><polygon class="cls-6" points="120.87 110.08 120.87 98.86 123.26 98.86 121.54 95.88 119.82 92.9 118.1 95.88 116.38 98.86 118.77 98.86 118.77 110.08 120.87 110.08"/><polygon class="cls-6" points="120.87 136.58 120.87 125.36 123.26 125.36 121.54 122.38 119.82 119.4 118.1 122.38 116.38 125.36 118.77 125.36 118.77 136.58 120.87 136.58"/><polygon class="cls-6" points="141.78 92.9 141.78 104.11 139.4 104.11 141.12 107.09 142.84 110.08 144.56 107.09 146.28 104.11 143.89 104.11 143.89 92.9 141.78 92.9"/><polygon class="cls-6" points="141.78 114.95 141.78 126.17 139.4 126.17 141.12 129.15 142.84 132.13 144.56 129.15 146.28 126.17 143.89 126.17 143.89 114.95 141.78 114.95"/><path class="cls-5" d="M475.82,88.76a5.4,5.4,0,0,0-2.71.72,6.67,6.67,0,0,0,.12-1.27,7.47,7.47,0,0,0-14.81-1.38A6.6,6.6,0,1,0,456.1,99.6h19.72a5.42,5.42,0,1,0,0-10.84Z"/><polygon class="cls-7" points="458.63 106.76 458.63 100 460.07 100 459.03 98.21 457.99 96.41 456.96 98.21 455.92 100 457.36 100 457.36 106.76 458.63 106.76"/><polygon class="cls-7" points="458.63 122.73 458.63 115.97 460.07 115.97 459.03 114.17 457.99 112.38 456.96 114.17 455.92 115.97 457.36 115.97 457.36 122.73 458.63 122.73"/><polygon class="cls-7" points="471.23 96.41 471.23 103.17 469.79 103.17 470.82 104.96 471.86 106.76 472.9 104.96 473.94 103.17 472.5 103.17 472.5 96.41 471.23 96.41"/><polygon class="cls-7" points="471.23 109.7 471.23 116.45 469.79 116.45 470.82 118.25 471.86 120.05 472.9 118.25 473.94 116.45 472.5 116.45 472.5 109.7 471.23 109.7"/><g class="cls-8"><path class="cls-9" d="M192.67,406.94v-278h50.1v278Z"/><path class="cls-9" d="M342.65,410Q321,410,307,402a50.35,50.35,0,0,1-21.1-23.51q-7.05-15.45-7-37.41V274.46q0-22,7-37.41A50.35,50.35,0,0,1,307,213.54q14.07-8.06,35.7-8.06t35.86,8.06a50.14,50.14,0,0,1,21.28,23.51q7,15.45,7,37.41v66.59q0,22-7,37.41A50.14,50.14,0,0,1,378.51,402Q364.28,410,342.65,410Zm.34-32.26q7.89,0,11.67-4.46t4.81-12.19a130.19,130.19,0,0,0,1-17V271.37a126.26,126.26,0,0,0-1-16.81,24.07,24.07,0,0,0-4.81-12.19q-3.78-4.63-11.67-4.63c-5.27,0-9.15,1.54-11.67,4.63a25.08,25.08,0,0,0-5,12.19,106.33,106.33,0,0,0-1.21,16.81v72.76a109.63,109.63,0,0,0,1.21,17q1.18,7.72,5,12.19C333.84,376.28,337.72,377.77,343,377.77Z"/><path class="cls-9" d="M469.63,406.94V166.35H425.36V128.94H564v37.41H520.43V406.94Z"/></g><g class="cls-8"><path class="cls-10" d="M182.06,406.94v-278h50.11v278Z"/><path class="cls-10" d="M332,410q-21.62,0-35.69-8.06a50.37,50.37,0,0,1-21.11-23.51q-7-15.45-7-37.41V274.46q0-22,7-37.41a50.37,50.37,0,0,1,21.11-23.51q14.07-8.06,35.69-8.06t35.87,8.06a50.24,50.24,0,0,1,21.28,23.51q7,15.45,7,37.41v66.59q0,22-7,37.41A50.24,50.24,0,0,1,367.91,402Q353.66,410,332,410Zm.34-32.26q7.89,0,11.67-4.46t4.81-12.19a130.1,130.1,0,0,0,1-17V271.37a126.16,126.16,0,0,0-1-16.81,24.07,24.07,0,0,0-4.81-12.19q-3.78-4.63-11.67-4.63t-11.67,4.63a25.18,25.18,0,0,0-5,12.19,106.4,106.4,0,0,0-1.2,16.81v72.76a109.69,109.69,0,0,0,1.2,17q1.2,7.72,5,12.19T332.38,377.77Z"/><path class="cls-10" d="M459,406.94V166.35H414.75V128.94H553.41v37.41H509.82V406.94Z"/></g><path class="cls-11" d="M172.74,228.35h32.12a9.48,9.48,0,0,1,9.48,9.48v14.63a9.48,9.48,0,0,1-9.48,9.48h0l-.31,14.69-10.09-14.69H172.74a9.49,9.49,0,0,1-9.48-9.48V237.83A9.49,9.49,0,0,1,172.74,228.35Z"/><path class="cls-12" d="M184.86,236.25h-26.4a7.79,7.79,0,0,0-7.79,7.79v12a7.79,7.79,0,0,0,7.79,7.79h0l.26,12.07L167,263.86h17.85a7.79,7.79,0,0,0,7.79-7.79V244A7.79,7.79,0,0,0,184.86,236.25Z"/><path class="cls-13" d="M177,250a2.9,2.9,0,1,1,2.9,2.91A2.9,2.9,0,0,1,177,250Z"/><circle class="cls-13" cx="170.88" cy="250.04" r="2.9"/><circle class="cls-13" cx="161.89" cy="250.04" r="2.9"/><path class="cls-14" d="M700.38,116.86a13.13,13.13,0,0,0-9.17-9.89c-8.23-2.66-15.45,1.6-15.52,1.65l-1.42-2.36c.34-.2,8.38-5,17.78-1.92a15.86,15.86,0,0,1,11.05,12.12Z"/><path class="cls-15" d="M700.49,116.57l-1-10,1.26-.25L710.89,109v22.67s-3.27,4.67-4.33,5a2.41,2.41,0,0,1-3.27-1.17c-.82-1.63-2.69-9.11-2.69-9.11Z"/><path class="cls-14" d="M699.44,116.92v-10.4l10.4,2.81V132s-3.28,4.67-4.33,5a2.42,2.42,0,0,1-3.27-1.16c-.82-1.64-2.69-9.12-2.69-9.12Z"/><path class="cls-16" d="M672.91,121.6l36.11-3V131.3a45.78,45.78,0,0,0-22.44-3.86c-5.48.39-13.55,1.05-13.55,1.05Z"/><polygon class="cls-16" points="709.02 118.56 699.79 115.99 671.27 119.38 672.91 121.6 709.02 118.56"/><rect class="cls-14" x="667.3" y="105.35" width="5.26" height="13.56"/><ellipse class="cls-14" cx="669.93" cy="129.08" rx="4.38" ry="3.97"/><ellipse class="cls-14" cx="669.73" cy="107.07" rx="6.26" ry="5.67"/><rect class="cls-16" x="665.55" y="115.87" width="8.76" height="13.32"/><rect class="cls-16" x="669.93" y="115.87" width="4.38" height="13.32"/><path class="cls-17" d="M688.3,84.8c-3.42-7.12-9.78-9.59-16.78-7.8l-22.68,5.1,11,29.05,22-7.67a9.34,9.34,0,0,0,2-.71C689.74,100,691.71,91.92,688.3,84.8Z"/><path class="cls-14" d="M658.21,94C652.5,85.29,644,80.82,637.88,83.77c-4.94,2.37-7.08,8.91-6.08,16.52Z"/><ellipse class="cls-18" cx="653.08" cy="97" rx="12.9" ry="15.69" transform="translate(22.29 291.99) rotate(-25.63)"/><path class="cls-14" d="M661,93.2c2.55,5.32,1.07,11.33-3.3,13.43s-10-.52-12.54-5.84-1.07-11.33,3.3-13.42S658.45,87.88,661,93.2Z"/><path class="cls-18" d="M656.18,95.51c1,2.08.43,4.44-1.29,5.26s-3.91-.2-4.91-2.29-.42-4.44,1.29-5.26S655.18,93.42,656.18,95.51Z"/><path class="cls-19" d="M689.48,84c-3.41-7.12-10.36-9.83-16.78-7.81L639.49,83l.13.12c6.94-1.73,16,4.6,21,15.1a35.78,35.78,0,0,1,1.9,4.83l.2.17L672.92,100l17.63-4.73A15.71,15.71,0,0,0,689.48,84Z"/><path class="cls-16" d="M688.56,82.33,655.12,90a34.71,34.71,0,0,1,5.52,8.29,35.78,35.78,0,0,1,1.9,4.83l.2.17L672.92,100l17.63-4.73A15.71,15.71,0,0,0,689.48,84,16.84,16.84,0,0,0,688.56,82.33Z"/><line class="cls-15" x1="628.68" y1="80.29" x2="490.93" y2="73.04"/><line class="cls-15" x1="587.78" y1="203.23" x2="542.41" y2="264.44"/><line class="cls-15" x1="650.43" y1="118.71" x2="593.14" y2="196"/><path class="cls-20" d="M379.53,130a14,14,0,0,0-14,14c0,7.75,14,23.6,14,23.6s14-15.85,14-23.6A14,14,0,0,0,379.53,130Zm0,20.41a6.38,6.38,0,1,1,6.38-6.38A6.38,6.38,0,0,1,379.53,150.42Z"/><path class="cls-20" d="M421.86,374a9.56,9.56,0,0,0-9.55,9.55c0,5.28,9.55,16.08,9.55,16.08s9.56-10.8,9.56-16.08A9.56,9.56,0,0,0,421.86,374Zm0,13.9a4.35,4.35,0,1,1,4.35-4.35A4.34,4.34,0,0,1,421.86,387.89Z"/><path class="cls-20" d="M617.48,208.41a9.56,9.56,0,0,0-9.56,9.56c0,5.28,9.56,16.08,9.56,16.08S627,223.25,627,218A9.56,9.56,0,0,0,617.48,208.41Zm0,13.91a4.35,4.35,0,1,1,4.34-4.35A4.35,4.35,0,0,1,617.48,222.32Z"/><path class="cls-21" d="M75,152.71c17.59.27,32.26,6.95,43.82,20.29a4.07,4.07,0,0,1-.37,5.87,4,4,0,0,1-5.72-.54A50.23,50.23,0,0,0,98,166.42a49,49,0,0,0-54.72,6,75.4,75.4,0,0,0-5.94,5.92,4.14,4.14,0,0,1-5.86.53,4.09,4.09,0,0,1-.28-5.87,57.15,57.15,0,0,1,36.56-19.89c1.15-.16,2.31-.28,3.47-.34S73.73,152.71,75,152.71Z"/><path class="cls-21" d="M76.45,169c11.12.29,21.57,5,29.79,14.54a4,4,0,0,1-.36,5.84,4,4,0,0,1-5.78-.56,31.73,31.73,0,0,0-15.84-10.32c-12.92-3.49-24.09-.31-33.45,9.26-.35.35-.67.74-1,1.11a4.06,4.06,0,1,1-6.14-5.32,40.75,40.75,0,0,1,13.11-10.28C62.53,170.44,68.63,169.05,76.45,169Z"/><path class="cls-21" d="M94.74,196.83a4.06,4.06,0,0,1-2.6,3.81,4,4,0,0,1-4.53-1.14,17.17,17.17,0,0,0-6.21-4.62,16.41,16.41,0,0,0-19,4.54,3.93,3.93,0,0,1-4.34,1.3,4.06,4.06,0,0,1-1.89-6.52,24.41,24.41,0,0,1,37.59.07,11.32,11.32,0,0,1,1.2,2.47Z"/><path class="cls-21" d="M75,218.19a8.16,8.16,0,1,1,8.14-8.13A8.11,8.11,0,0,1,75,218.19Z"/><path class="cls-22" d="M672.1,259.27A19.3,19.3,0,0,1,687,266.18a1.38,1.38,0,0,1-.13,2A1.37,1.37,0,0,1,685,268a17,17,0,0,0-5-4.06,16.69,16.69,0,0,0-18.65,2,27.35,27.35,0,0,0-2,2,1.39,1.39,0,1,1-2.09-1.82,19.46,19.46,0,0,1,12.46-6.77,11.5,11.5,0,0,1,1.18-.12C671.23,259.25,671.67,259.27,672.1,259.27Z"/><path class="cls-22" d="M672.59,264.82a13.66,13.66,0,0,1,10.15,5,1.35,1.35,0,0,1-.12,2,1.38,1.38,0,0,1-2-.19,10.69,10.69,0,0,0-5.4-3.52,11,11,0,0,0-11.39,3.15c-.12.12-.23.25-.34.38a1.38,1.38,0,1,1-2.09-1.81,13.84,13.84,0,0,1,4.46-3.5A14.46,14.46,0,0,1,672.59,264.82Z"/><path class="cls-22" d="M678.82,274.3a1.35,1.35,0,0,1-.88,1.29,1.37,1.37,0,0,1-1.54-.38,6,6,0,0,0-2.12-1.58,5.59,5.59,0,0,0-6.47,1.55,1.38,1.38,0,1,1-2.12-1.78,8.37,8.37,0,0,1,11.7-1.08,9.52,9.52,0,0,1,1.1,1.1,4.09,4.09,0,0,1,.41.84Z"/><path class="cls-22" d="M672.09,281.57a2.78,2.78,0,0,1,0-5.56,2.78,2.78,0,1,1,0,5.56Z"/><path class="cls-11" d="M490.44,386.2s9.41-20.62,11.63-23.8,9-11.21,10.24-13.57,3.6-8,3.6-8-10,8-13.84,14.67-12.87,31.27-12.87,31.27Z"/><path class="cls-23" d="M495.73,372.46c2.58-6.54,5.46-13.44,7.22-16.47,2.34-4,7.06-8.62,10.27-11.51-.64,1.44-1.32,2.94-1.82,3.87a91.82,91.82,0,0,1-5.77,7.74c-1.79,2.25-3.47,4.38-4.4,5.72A119.15,119.15,0,0,0,495.73,372.46Z"/><g class="cls-24"><path d="M501.53,358.75l1.15,1.09.95-1.22-1.39-1.31C502,357.75,501.77,358.23,501.53,358.75Z"/><path d="M497.86,368.08c.24-.49.48-1,.71-1.41l-.46-.12-.59,1.44Z"/><path d="M507,350.61c-.35.38-.68.77-1,1.16l1.72,1.61c.33-.41.65-.82.95-1.22Z"/><path d="M510.89,346.64l1.05.64c.21-.43.43-.91.65-1.4l-.54-.33Z"/></g><path class="cls-25" d="M486.57,386.2s3-42.9,2.63-54.25-5.12-24.5-5.68-27.26a52.17,52.17,0,0,0-1.8-6.23s-.55,25.46.83,36-.55,22.28-.69,28.23-1.52,22.7-1.52,22.7Z"/><path class="cls-11" d="M480.34,385.37s9-42.9,12.18-54.11,10.79-23,12-26.71,4.15-10.8,4.15-10.8,0,13.56-3.46,20.35-9.41,18.68-11.07,23.8-7.61,32.25-9.27,38.89-1.53,9.41-1.53,9.41Z"/><path class="cls-23" d="M481.54,384.63c1.34-6.36,9.09-43,12-53.09,2.07-7.3,6-14.79,8.91-20.25a56.86,56.86,0,0,0,3.12-6.42c.46-1.39,1.17-3.26,1.86-5.05-.37,4.39-1.2,10.17-3.05,13.81-4.22,8.26-9.57,19.12-11.14,23.95-1.09,3.38-4,16.13-6.36,26.38-1.26,5.51-2.35,10.27-2.93,12.58a51.35,51.35,0,0,0-1.5,8.33Z"/><g class="cls-24"><path d="M495,326.93c-.19.48-.36,1-.53,1.45l2.28.62q.31-.69.66-1.41Z"/><path d="M493.09,338l-1.09-.6c-.12.5-.25,1-.37,1.55l1,.57C492.82,338.88,493,338.36,493.09,338Z"/><path d="M505.57,304.76l1.16.55c.08-.54.16-1.06.23-1.59l-.88-.41C505.89,303.83,505.72,304.32,505.57,304.76Z"/><path d="M505,312.05c.18-.47.35-.95.5-1.46l-2.25-1-.72,1.36Z"/><path d="M498.35,319.25l2.54,1.23.68-1.37L499,317.87C498.79,318.33,498.57,318.79,498.35,319.25Z"/></g><path class="cls-25" d="M482.14,385.09c.14-1,8.72-28.37,12.73-37.64s14-21.31,14.12-21.73-1.94,10.66-3.88,14.39-7.2,12.6-10.93,21.18a220.49,220.49,0,0,0-8,22.83,4.66,4.66,0,0,0,.42,2.08Z"/><path class="cls-11" d="M467.19,290.29s0,.35,0,1c-.08,4-.26,19.51,1.54,23.95,2.08,5.12,2.5,8.31,4.57,16.75s2.35,33.35,2.63,35.57,4,18.82,4,18.82h4.85s-5-51.21-7.2-59.24-6.09-21.86-7.2-25.87S467.19,290.29,467.19,290.29Z"/><path class="cls-23" d="M480.74,385.31c-1.32-5.91-3.61-16.29-3.81-17.92-.07-.51-.14-2.6-.23-5.24-.3-8.39-.84-24-2.42-30.45-.56-2.24-1-4.11-1.37-5.75a65.78,65.78,0,0,0-3.25-11.13c-1.07-2.65-1.48-10.11-1.51-17.67.45,1.54.89,3.09,1.24,4.35.46,1.67,1.4,5,2.5,9,1.54,5.54,3.4,12.21,4.69,16.9,2,7.19,6.31,50.38,7.06,57.93Z"/><g class="cls-26"><path d="M473.5,316.26l-2.9,1.05c.17.49.33,1,.48,1.46l2.83-1C473.77,317.25,473.63,316.75,473.5,316.26Z"/><path d="M468.4,306.14l2.08-.7c-.15-.53-.28-1-.41-1.49l-1.75.6C468.35,305.09,468.37,305.62,468.4,306.14Z"/><path d="M472.2,311.59c-.11-.37-.21-.74-.31-1.11l-.11-.4-2.87,1.42c.08.58.17,1.11.27,1.58Z"/><path d="M477.54,332.32l-3,.64c.09.47.18,1,.26,1.51l3-.62C477.69,333.32,477.62,332.81,477.54,332.32Z"/><path d="M476.28,326.27c-.14-.49-.28-1-.42-1.52L473,326.34c.12.49.24,1,.36,1.55Z"/></g><path class="cls-11" d="M477.93,386.34s-2.3-37.09-2.3-48,8.12-25.73,9.35-27.89,6.43-13.08,6.43-13.08S487.12,317.91,485,326s-2.76,20.41-3.68,27.17-1.22,22.86-1.22,26.74-.16,6.47-.16,6.47Z"/><path class="cls-23" d="M478.89,385.31c-.35-5.9-2.23-37.2-2.23-47,0-10.86,8.27-25.72,9.21-27.38.49-.87,1.6-3.1,2.77-5.48-1.44,6.64-3.41,15.58-4.65,20.23-1.52,5.69-2.29,13.57-2.9,19.9-.27,2.76-.53,5.36-.8,7.4-.93,6.81-1.24,23.11-1.24,26.88,0,2.43-.06,4.36-.1,5.44Z"/><g class="cls-24"><path d="M479.77,324.07c-.18.49-.35,1-.53,1.49a27.27,27.27,0,0,1,3.08.46,9.11,9.11,0,0,1,1.43.63q.11-.48.24-1c0-.17.1-.37.15-.56a9.57,9.57,0,0,0-1.39-.59A25.11,25.11,0,0,0,479.77,324.07Z"/><path d="M480.07,354.81l-2.88-.63c0,.53.05,1.06.07,1.59l2.67.58C480,355.81,480,355.3,480.07,354.81Z"/><path d="M476.66,339.21c0,.5,0,1,0,1.61a11,11,0,0,1,2.07-.6c.26,0,1.36.39,2.78.87,0-.52.11-1,.17-1.57a25.56,25.56,0,0,0-2.78-.83A8,8,0,0,0,476.66,339.21Z"/><path d="M478.65,332.45a27.16,27.16,0,0,1,3.76,1.4l.24-1.57a23.81,23.81,0,0,0-3.8-1.36,9,9,0,0,0-1.19,0c-.13.53-.24,1-.35,1.57A7,7,0,0,1,478.65,332.45Z"/><path d="M484.42,313.64l2.22.9c.12-.5.23-1,.34-1.52l-1.84-.75Z"/><path d="M482.68,317.17c-.22.46-.44.95-.66,1.45l3.56.56c.12-.49.23-1,.35-1.5Z"/><path d="M476.9,347.51c0,.5,0,1,.06,1.55,1.08.15,2.34.36,3.72.62.05-.5.1-1,.15-1.54C479.46,347.89,478.1,347.67,476.9,347.51Z"/></g><path class="cls-11" d="M474.8,386.06s-5.81-19.65-7.05-25.6-.14-23.53-.42-26.71-2.63-12-2.63-12,4.15,6.78,5.67,9.82,6,14.53,6.51,20.62-.14,10.94,0,14.26,1.52,19.65,1.52,19.65Z"/><path class="cls-23" d="M475.57,385c-1.07-3.63-5.73-19.6-6.82-24.79-.81-3.84-.6-12.84-.44-19.41.08-3.39.14-6.06,0-7.18a48.67,48.67,0,0,0-1-5.52c.83,1.45,1.62,2.86,2.12,3.85,1.43,2.87,5.86,14.28,6.4,20.26a70.7,70.7,0,0,1,.08,9.81c-.08,1.67-.14,3.12-.08,4.39.11,2.84,1.11,14.83,1.43,18.59Z"/><g class="cls-24"><path d="M472.38,339.21c-.18-.49-.35-1-.53-1.44l-3.5,1.17c0,.52,0,1.07,0,1.63Z"/><path d="M473.61,342.83l-5.36.77c0,.52,0,1,0,1.56l5.87-.85C473.93,343.82,473.77,343.32,473.61,342.83Z"/><path d="M471.12,335.87c-.2-.51-.39-1-.58-1.43l-2.14.6c0,.46,0,1,0,1.6Z"/><path d="M475.86,366.45c0-.37,0-.75,0-1.15l-5.79.22c.13.5.27,1,.41,1.52l5.41-.2C475.87,366.7,475.86,366.56,475.86,366.45Z"/><path d="M476.11,370.32h-4.76c.14.51.29,1,.43,1.54h4.44C476.18,371.32,476.14,370.81,476.11,370.32Z"/><path d="M476,355.42l-7.74.82c0,.54.07,1.06.11,1.54l7.66-.82C476.07,356.46,476.06,356,476,355.42Z"/><path d="M475.77,351.46c-.07-.48-.15-1-.25-1.52l-7.36.46c0,.52,0,1,0,1.54Z"/></g><path class="cls-11" d="M474.53,384.4s-2.91-18.82-6.78-23.94-18.13-17.72-19.24-19.38l-1.11-1.66s6.64,15.23,11.07,20.21,4.29,6.22,8.17,12.45a51.8,51.8,0,0,1,5.53,12.46l.28,1.11,2.35.41Z"/><path class="cls-23" d="M473.28,384.75l-.11-.46a52.57,52.57,0,0,0-5.66-12.75c-1.28-2.05-2.1-3.54-2.83-4.84a35,35,0,0,0-5.44-7.75c-2.45-2.75-5.64-8.84-7.94-13.57l2.5,2.38c4.57,4.34,10.83,10.28,13.13,13.32,3.67,4.85,6.56,23.29,6.58,23.48l0,.24Z"/><g class="cls-24"><path d="M463.52,357.25l-3.87,2.17c.37.42.71.82,1,1.19l4-2.21C464.27,358,463.91,357.64,463.52,357.25Z"/><path d="M453.86,347.82l-1,.71.71,1.38,1.41-1C454.61,348.53,454.23,348.16,453.86,347.82Z"/><path d="M459.57,353.29l-1.11-1.08-2.49,2c.27.45.54.9.81,1.32Z"/><path d="M470.94,371.83l-2.61,1.08c.26.45.51.91.75,1.35l2.22-.92Z"/><path d="M468.36,363.69l-4.1,2.25c.14.25.27.5.42.76s.21.38.33.58l3.92-2.15C468.75,364.62,468.55,364.14,468.36,363.69Z"/></g><path class="cls-11" d="M489.2,386.75s8.44-19.93,9.68-27.81,1.53-18.55,1.8-21.73a24.51,24.51,0,0,1,1.8-7.61c.69-1.39,2.63-6.65,2.63-6.65s-7.06,10.52-9.41,15.78-6.37,15.36-7.75,23.11-1.38,24.36-1.38,24.36Z"/><path class="cls-23" d="M487.6,385.37c0-3.45.18-16.76,1.36-23.35,1.62-9,6.68-20.64,7.68-22.87a71.73,71.73,0,0,1,3.91-7.12,29.74,29.74,0,0,0-.89,5.09c-.07.86-.15,2.21-.24,3.93-.25,4.77-.64,12-1.55,17.73-1.07,6.8-7.73,23.05-9.29,26.79Z"/><g class="cls-24"><path d="M493.24,373.76l.54-1.45c-1-.24-2-.46-2.85-.62s-1.92-.34-2.9-.46l-.09,1.54c.92.12,1.85.26,2.7.42S492.3,373.54,493.24,373.76Z"/><path d="M497.87,358.81l-7.9-1.27c-.13.5-.26,1-.38,1.49l8,1.29C497.69,359.78,497.79,359.27,497.87,358.81Z"/><path d="M497.48,337.41c.72.1,1.43.21,2.09.34h0c0-.23,0-.45.05-.64s.06-.6.1-.9l-1.5-.25Q497.84,336.72,497.48,337.41Z"/><path d="M488.5,365.35c-.05.5-.11,1-.15,1.54l6.9,1.26c.17-.49.33-1,.49-1.47Z"/><path d="M497.16,342.08l-1.64-.35q-.28.66-.6,1.44l1.92.41c.76.16,1.58.36,2.41.58,0-.54.06-1.06.09-1.57C498.59,342.4,497.86,342.23,497.16,342.08Z"/><path d="M491.87,351.3l6.75,1.37c.05-.51.1-1,.14-1.54l-6.38-1.3Z"/><path d="M488.23,377.52l-.48-.11c0,.54,0,1.06-.05,1.57l.21,0c.95.21,2,.46,3,.74l.56-1.44C490.38,378,489.26,377.74,488.23,377.52Z"/></g><path class="cls-11" d="M478.4,387s-.83-20.21,2.22-31a133.82,133.82,0,0,1,7.19-19.65c1.39-3.32,6.51-9.28,6.51-9.28S491,335.55,491,339s1.38,6.22-.42,16.88-5.12,16.61-5.4,18.55-3,11.9-3,11.9Z"/><path class="cls-23" d="M479.39,385.8c-.12-4.46-.33-20.46,2.21-29.49a124.24,124.24,0,0,1,6.33-17.62c.31-.71.59-1.35.83-1.92a24.2,24.2,0,0,1,2.57-4.21A26.09,26.09,0,0,0,490,339a25.35,25.35,0,0,0,.21,2.87c.31,2.74.69,6.14-.61,13.84a75,75,0,0,1-4.34,15.36,17.37,17.37,0,0,0-1.06,3.21c-.21,1.43-2,8-2.85,11.16Z"/><path class="cls-27" d="M484.91,359.55l-.16,0-3.83-.3c-.1.5-.19,1-.28,1.52l3.91.31c1.25.37,2.55.77,3.63,1.11.13-.48.26-1,.38-1.49C487.66,360.38,486.48,360,484.91,359.55Z"/><path class="cls-27" d="M486.55,367.51c-2.3.05-5.19.12-6,.24l-.73.11-.12,1.58,1.05-.17c.67-.09,3-.16,5.26-.21C486.17,368.58,486.36,368.06,486.55,367.51Z"/><path class="cls-27" d="M479.37,376.85l4.14.37c.14-.55.26-1.06.36-1.51l-4.46-.4C479.39,375.83,479.38,376.35,479.37,376.85Z"/><path class="cls-27" d="M489.91,353.5l-1.62-.25c-2-.3-4.07-.62-5.55-.78l-.46,1.5c1.45.14,3.72.49,5.77.8l1.63.25C489.77,354.5,489.84,354,489.91,353.5Z"/><path class="cls-27" d="M486.26,347.26a5.42,5.42,0,0,0-1.74-.12c-.19.53-.38,1.07-.57,1.64a4.28,4.28,0,0,1,1.95,0,29.49,29.49,0,0,1,4.39,1.59c0-.57.09-1.12.12-1.62A30.21,30.21,0,0,0,486.26,347.26Z"/><path class="cls-27" d="M489.49,342.68a7.37,7.37,0,0,1,.79.06c0-.29-.07-.58-.1-.86s-.05-.47-.07-.7l-.62,0a20.48,20.48,0,0,0-2.73.25l-.69,1.67A23,23,0,0,1,489.49,342.68Z"/><path class="cls-27" d="M488,338.53a4.62,4.62,0,0,1,1.75.13l.23.09a12.55,12.55,0,0,1,.18-1.58,5.6,5.6,0,0,0-1.49-.2C488.47,337.44,488.25,338,488,338.53Z"/><path class="cls-11" d="M480.75,386.89s.28-13.15-1.1-17.85-3.74-7.89-5.4-12.32-6.37-11.07-6.37-11.07,3.05,7.2,3.46,9.41,1.39,5.54,1.39,6.64-.83,6.37.83,10.24a41.16,41.16,0,0,1,3,10.25c.14,1.93.14,4.42.14,4.42Z"/><path class="cls-23" d="M477.76,385.66c0-.92-.05-2.33-.13-3.55a42.48,42.48,0,0,0-3.13-10.57c-1.27-3-1-6.93-.81-8.83,0-.45.06-.77.06-1a23.08,23.08,0,0,0-.75-3.93c-.23-.95-.46-1.94-.62-2.76.35.72.67,1.42.91,2.07a54.94,54.94,0,0,0,2.45,5.37,39.63,39.63,0,0,1,2.92,6.88c1.1,3.73,1.11,13.25,1.08,16.46Z"/><g class="cls-24"><path d="M473,357.77l.29,1.21.73-.12c-.21-.48-.41-1-.6-1.46l-.49.09C473,357.58,473,357.68,473,357.77Z"/><path d="M473.55,365.64l3.47-.59c-.23-.48-.46-1-.7-1.44l-2.72.46C473.57,364.55,473.55,365.08,473.55,365.64Z"/><path d="M478.66,369.33c0-.1-.06-.19-.08-.28l-4.65.69a9.49,9.49,0,0,0,.45,1.49l4.57-.68A11.64,11.64,0,0,0,478.66,369.33Z"/><path d="M479.57,376.5c0-.52-.06-1-.1-1.55l-3.44.63c.16.5.32,1,.47,1.48Z"/></g><polygon class="cls-28" points="490.66 407.05 472.41 407.05 470.7 385.62 492.3 385.62 490.66 407.05"/><polygon class="cls-28" points="493.83 387.92 469.62 387.92 469.03 381.3 494.42 381.3 493.83 387.92"/><rect class="cls-29" x="528.41" y="376.88" width="175.13" height="30.17"/><rect class="cls-22" x="532.05" y="381.41" width="167.84" height="21.12"/><rect class="cls-29" x="531.96" y="389.51" width="168.02" height="4.91"/><rect class="cls-29" x="594.46" y="376.88" width="96.68" height="30.17"/><polygon class="cls-14" points="553.21 286.54 553.21 376.52 560.66 376.52 560.66 368.2 671.84 368.2 671.84 376.52 678.73 376.52 678.73 286.54 553.21 286.54"/><rect class="cls-14" x="549.36" y="286.54" width="133.23" height="83.79"/><rect class="cls-15" x="554.92" y="290.87" width="122.09" height="75.12"/><polygon class="cls-30" points="626.95 328.22 616.86 334.04 606.77 339.87 606.77 328.22 606.77 316.57 616.86 322.4 626.95 328.22"/><line class="cls-31" x1="11.64" y1="407.05" x2="716.51" y2="407.05"/><path class="cls-15" d="M102,291.87a50.72,50.72,0,0,0-29.31-3.6A43.83,43.83,0,0,0,46,303.71c-18.6,22.7-20.81,70.94-15.14,92.07s25.86,38.46,47.61,42.56,95.22,4.73,129.27-5.67,36.89-37.52,32.48-56.13-14.19-34.36-39.41-47.6-68.09-24.94-79.14-29C115.47,297.64,107.65,294.33,102,291.87Z"/><path class="cls-31" d="M168.32,350.11s19.48-13.53,27.59-13.53"/><path class="cls-31" d="M170,324.68s-13,16.77-14.61,24.89"/><path class="cls-31" d="M55.08,346.76a188.08,188.08,0,0,1,22,10.85C98.26,369.75,111.4,373,111.4,373"/><path class="cls-31" d="M41,341.86s2.78.67,7.63,2.4"/><path class="cls-15" d="M82.39,264.49s-4.11-6.43-8-5.21-.46,7.84,1.82,9.09,6-.11,6.39-.34"/><path class="cls-15" d="M235.62,415.49l21.05,25.26a15.19,15.19,0,0,0,10.45-.16,21.76,21.76,0,0,0,8.76-7.25s-16.34-13.47-25.44-15.66A70.14,70.14,0,0,0,235.62,415.49Z"/><path class="cls-14" d="M255.36,419.54a26.32,26.32,0,0,0-4.92-1.86,70.14,70.14,0,0,0-14.82-2.19l9.76,11.71A57.28,57.28,0,0,1,255.36,419.54Z"/><path class="cls-15" d="M150.24,338.16l14,9.28s40.23-5.24,55.23-2.14,16.43,5.47,17.38,6.19,25.95,54.28,25.95,54.28,23.09,11.9,29,13.33,23.81,3.57,28.33,2.38,11.9-2.86,14.76.47,1.19,8.34-2.14,11.91-14.05,10.47-29.76,14.52-15.47-6.67-24.52-11.67-20-11.18-26.9-14.28-28.57-8.09-41.9-17.38-23.33-17.38-28.09-18.8-6.43-1-25.95-3.1-32.85-.71-43.56-7.14-15-15.47-16.43-21.43c0,0,36.18-24,39.76-25S150.24,338.16,150.24,338.16Z"/><line class="cls-32" x1="243.68" y1="391.88" x2="258.31" y2="403.15"/><path class="cls-33" d="M262.84,405.77s-25-53.57-25.95-54.28-2.38-3.1-17.38-6.19-55.23,2.14-55.23,2.14l-14-9.28s-11.19-9.52-14.76-8.57-39.76,25-39.76,25c1.43,6,5.71,15,16.43,21.43s24,5,43.56,7.14,21.19,1.67,25.95,3.1,14.76,9.52,28.09,18.8,35,14.29,41.9,17.38c2,.88,4.27,2,6.76,3.31,1.36-8.32,6.39-15.29,8.49-17.91Z"/><path class="cls-15" d="M289,425.05a22.85,22.85,0,0,0,1.19,8.09s-4.13,4-7.45,6.79c5.29,5.23,7.49,11.75,20.31,8.45,15.71-4.05,26.42-10.95,29.76-14.52s5-8.57,2.14-11.91-10.24-1.66-14.76-.47-22.38-1-28.33-2.38C291.88,419.1,289,419.81,289,425.05Z"/><path class="cls-15" d="M335,422c-.05-.06-.12-.11-.18-.17a25.06,25.06,0,0,1-2.27,8.9c-2.22,4.13-28.73,15.72-34.93,16.51-2.34.3-4.71.49-6.75.6,2.73,1.54,6.36,2.1,12.23.59,15.71-4.05,26.42-10.95,29.76-14.52S337.83,425.29,335,422Z"/><line class="cls-32" x1="244.97" y1="395.2" x2="253.42" y2="401.3"/><path class="cls-32" d="M139.7,360.23a255,255,0,0,1,28.39-5.65,74.32,74.32,0,0,1,31.6,3.12l35,30.1,5.9,4.26"/><path class="cls-32" d="M127.86,363.39s2.64-.77,6.81-1.87"/><path class="cls-15" d="M133.64,288.46s4.13,1.94,5.81,3.62,34.72,37.7,35.37,41.44-6.33,7.36-8.39,7.36a6.72,6.72,0,0,1-3.62-.65c-.64-.38-17.43-12.65-17.43-12.65S130.67,289.37,129.76,288,131.18,287.3,133.64,288.46Z"/><path class="cls-15" d="M147.59,313.57s12.12,19.42,12.57,20.49,2.94,6.78,7.93,9.27,9.44,1.25,10.16,0,2-11.67-.89-15.42S164,317,162.29,315.71s-6-5.89-6-5.89-1.87-3.21-3.74-2.94S147.32,311.16,147.59,313.57Z"/><path class="cls-15" d="M80.9,285.43s-16.42,6-18.91,7.8,29.2,53.1,29.2,53.1,2.66,11.45,3.82,11.95a34.86,34.86,0,0,0,4.15,1.16s32-19.08,33.68-20.08,18.75,3.65,19.75,1.33a5.9,5.9,0,0,0-1.16-6.31,30.78,30.78,0,0,1-2.83-4.31l-7.13-21.74s-6.14-17.42-8.8-19.91-22.06-4-22.06-4Z"/><path class="cls-31" d="M97.58,306.82a29.26,29.26,0,0,0,6,2.77"/><path class="cls-31" d="M81.91,292.72a69.22,69.22,0,0,0,12.28,11.85"/><path class="cls-31" d="M120.16,336.25c6-2.39,14-5.91,19-9.42"/><path class="cls-31" d="M112,339.3s2.07-.71,5.16-1.88"/><polygon class="cls-14" points="113.09 266.85 114.75 279.79 101.31 280.46 100.65 267.85 113.09 266.85"/><path class="cls-15" d="M104.13,278.3s.17,4.48,1,5,5.48,1.16,5.48,1.16,1.69,7.43,0,11.42-3.44,4.85-11.93,1c-6.9-3.12-17.81-11.44-17.81-11.44s5-3.81,5.15-6.3-1.16-9-1.16-9Z"/><path class="cls-15" d="M81.82,231.27a19.62,19.62,0,0,0-9.59,13c-2.17,9.48,4,19.18,6.62,21.92s3.19,5.26,8.56,8.11,8.2,5.52,16.55,5.84c4.7.19,10.27-10.66,10.27-17.17,0-2.57-1.12-6.77-1.12-8.18,0-2.17.36-5.13.16-8.51-.35-5.59-3.6-9.88-10.68-14.45S85.13,229,81.82,231.27Z"/><path class="cls-31" d="M103.78,253.42s-.69,4.73-.29,5.23,3.45,4.43,3.06,5.42a3,3,0,0,1-3,1.68"/><path class="cls-31" d="M98,268.73s5,1.83,9.59,0"/><path class="cls-31" d="M99.1,252.24s-4.65-.88-7,2.56"/><path class="cls-31" d="M111.38,250.5a5.3,5.3,0,0,0-6.22.43"/><path class="cls-13" d="M109.44,257.93c0,1.16-.51,2.11-1.14,2.11s-1.14-1-1.14-2.11.51-2.11,1.14-2.11S109.44,256.76,109.44,257.93Z"/><path class="cls-13" d="M98,259.77c0,1.17-.51,2.11-1.14,2.11s-1.15-.94-1.15-2.11.52-2.11,1.15-2.11S98,258.61,98,259.77Z"/><path class="cls-14" d="M110.06,234.25c-4.82-5.94-17.82-9.31-29.37-5S68,246.09,69.3,256.52L66.4,279l5.65,1.53,1.07-2.64,1,3.19,10.13,2.74.52-1.14.57,1.44,6.16,1.66-4.4-30.92,1.62-8,.8,5.78,13-3.05.32-5.94,1.93,4,10.43-1.6A22.71,22.71,0,0,0,110.06,234.25Z"/><path class="cls-15" d="M153.38,314.55s6.86-5.44,7.84-7,1.43-6.51,1.43-6.51l-7.57-2.5s-8.11,11.15-7.94,13.37a4.47,4.47,0,0,0,2,3.3"/><path class="cls-34" d="M152.77,311.14l-12.27-.05a1.93,1.93,0,0,1-1.88-2.34l6.18-29.15a1.92,1.92,0,0,1,1.9-1.53l12.27.05a1.94,1.94,0,0,1,1.88,2.34l-6.18,29.15A1.93,1.93,0,0,1,152.77,311.14Z"/><path class="cls-35" d="M147.61,282.21c-.12.72-.6,1.24-1.07,1.16s-.76-.72-.64-1.45.6-1.24,1.07-1.16S147.73,281.49,147.61,282.21Z"/><path class="cls-15" d="M60.83,333.72S77.42,354.79,79.41,355s48.45-38.17,48.45-38.17l9.63-.33s8.46-6.63,9.29-8.13,1.21-1.71,1.28-2.94-.28-.92-.28-.92a14.45,14.45,0,0,0,1.21-3.22,7.93,7.93,0,0,0-.08-1.23s.77-1.92-.23-2.46-1.38-.46-1.38-.46-.46-1.84-1.69-1.61-9.29,4.37-9.29,4.37-7.15,1.92-9.37,4a50.21,50.21,0,0,0-5.3,6.6L88.84,330.22l-6.2,1.85-2.11-2Z"/><polyline class="cls-15" points="147.3 297.1 137.36 303.46 135.24 304.58"/><path class="cls-15" d="M148.91,300s-7.63,6.81-8.3,7.14-3.47,1.68-3.47,1.68"/><polyline class="cls-15" points="147.78 304.47 142.85 309.85 138.37 312.2"/><path class="cls-15" d="M62,293.23s-4.15,4-4.81,8.3-2.82,33.35-2.82,33.35l28.2-5.14s-3.15-10.62-5.8-18.42A52.13,52.13,0,0,0,70,298"/><path class="cls-15" d="M162.18,305.22s1.18-7.6.92-10.49-3.93-10.87-4.85-10,.66,5,.92,5.64a8.36,8.36,0,0,1,.39,1.31,33.19,33.19,0,0,0-6.29-2.1c-2.1-.26-1.7,2-.52,2.49s4.58,2.49,4.58,2.49l1.31,2.1-5.24-1.31c-1.57-.39-4.19-.52-4.19.39s1.18,1.44,1.18,1.44-2.23,1.18-.53,2.36,8.39,6.43,8.39,6.43"/><path class="cls-15" d="M150.39,297.22s7.24,2.62,9.52,5.31"/><line class="cls-15" x1="158.64" y1="296.7" x2="160.95" y2="298.25"/><path class="cls-15" d="M159.56,291.72s2.25,2.82,2.53,4.15"/><line class="cls-31" x1="132.84" y1="339.36" x2="141.31" y2="334.55"/><path class="cls-15" d="M256.34,439.07s-8.76,6.57-8.09,12.13,3.2,7.91,8.26,9.26,34,3.71,40.59,4.21,17.85-1.85,20-5.05,2.36-8.42-.33-11.12-15-4.88-17.52-5.39-10.61-3.7-10.61-3.7-7.92-4.38-10.45-5.06-6.4-1.34-6.4-1.34a25.87,25.87,0,0,1-2.19,2.69c-1.51,1.69-2.52,2.19-6.23,2.36A40.81,40.81,0,0,0,256.34,439.07Z"/><path class="cls-36" d="M317.14,459.62a9.57,9.57,0,0,0,1.41-3.34l-.06,0s.94-2.57-7.24-5.22-18-2-23.92-1-8.08,1.85-16.68,2-15.31-5.89-21.64-4.59a7,7,0,0,0-.76,3.75c.68,5.56,3.2,7.91,8.26,9.26s34,3.71,40.59,4.21S315,462.82,317.14,459.62Z"/><path class="cls-31" d="M60.63,303.36s11.34,2.35,16.13,8"/></g></g></svg>