<?xml version="1.0" encoding="utf-8"?>
<!-- Generator: Adobe Illustrator 25.0.1, SVG Export Plug-In . SVG Version: 6.00 Build 0)  -->
<svg version="1.1" id="Layer_1" xmlns="http://www.w3.org/2000/svg" xmlns:xlink="http://www.w3.org/1999/xlink" x="0px" y="0px"
	 viewBox="0 0 392 379" style="enable-background:new 0 0 392 379;" xml:space="preserve">
<style type="text/css">
	.st0{fill:none;stroke:#235C9C;stroke-width:5.23;stroke-linecap:round;stroke-miterlimit:10;}
	.st1{fill:#235C9C;}
	.st2{fill:#7CA092;}
	.st3{fill:url(#SVGID_1_);}
	.st4{fill:url(#SVGID_2_);}
	.st5{fill:url(#SVGID_3_);}
	.st6{opacity:8.000000e-02;}
	.st7{fill:#15265F;enable-background:new    ;}
	.st8{fill:#D0E9DC;enable-background:new    ;}
</style>
<g id="Layer_2_1_">
	<g id="Layer_1-2">
		<line class="st0" x1="125.4" y1="91.3" x2="221.7" y2="91.3"/>
		<path class="st1" d="M161.8,56.8c0.1,15.3-0.4,30.5-0.9,45.8c-0.3,7.6-0.6,15.2-1,22.8l-0.6,11.5l-0.7,11.4l-0.7,11.4l-0.1,1.4
			v0.6c0,0.2,0,0.3,0,0.5c0,0.7,0,1.3,0.1,2c0.2,1.3,0.6,2.5,1.2,3.7c0.6,1.1,1.4,2.2,2.4,3c0.2,0.2,0.5,0.4,0.8,0.6l0.4,0.3
			l0.4,0.2c0.3,0.1,0.5,0.3,0.8,0.4l0.9,0.3c2.4,0.8,5.6,0.5,8.8-0.5c0.8-0.3,1.6-0.6,2.4-0.9s1.6-0.7,2.4-1.1
			c1.6-0.8,3.2-1.6,4.7-2.6c0.8-0.4,1.5-1,2.3-1.5l2.3-1.5l4.5-3.4c5.9-4.7,11.4-9.9,17.1-15.1c0,0,0.1,0,0.1,0c0,0,0,0.1,0,0.1
			c-4.1,6.5-8.8,12.7-14,18.5c-5.3,5.8-11.2,11.1-18.9,14.9c-1,0.4-2.1,0.8-3.1,1.1c-0.5,0.2-1.1,0.3-1.6,0.4l-1.7,0.4
			c-0.6,0.1-1.2,0.2-1.8,0.2l-1.8,0.1c-0.6,0-1.2-0.1-1.8-0.1c-0.6,0-1.2-0.1-1.9-0.2c-2.5-0.5-4.9-1.5-7-2.9
			c-2.1-1.4-3.9-3.3-5.3-5.4c-1.4-2.1-2.4-4.4-2.9-6.9c-0.3-1.2-0.5-2.5-0.5-3.7c0-0.3,0-0.6,0-0.9v-0.9v-1.4l0.2-11.4l0.2-11.4
			l0.3-11.4c0.2-7.6,0.4-15.2,0.7-22.9c0.6-15.2,1.3-30.5,2.5-45.7c0.2-3,2.8-5.3,5.8-5.1c2.9,0.2,5.2,2.6,5.1,5.6L161.8,56.8z"/>
		<path class="st2" d="M200.9,143.1c-0.1,3-0.1,6.2,0,9.3s0.2,6.2,0.4,9.3s0.5,6.1,1,9.1c0.4,2.8,1,5.7,1.8,8.4
			c0.4,1.2,0.8,2.3,1.4,3.4c0.3,0.7,0.8,1.3,1.3,1.8c0.1,0.1,0.1,0.1,0,0c-0.1,0-0.1,0-0.2,0l0,0h0.1l0.3-0.1c0.2,0,0.4-0.1,0.6-0.1
			c0.4-0.1,0.9-0.3,1.3-0.5c2-1,3.8-2.4,5.3-4.2c1.8-2.1,3.3-4.4,4.5-6.8c2.7-5.1,4.7-10.6,5.8-16.3c0.3-1.4,0.5-2.8,0.7-4.2
			c0.1-0.7,0.1-1.4,0.2-2v-1c0-0.3,0-0.6,0-0.5v0.1v0.1v0.2c0,0.1,0.1,0.3,0.1,0.4c0.1,0.3,0.2,0.7,0.4,1c0.5,0.7,0.3,1.5,3.3,3.2
			c3.6,1.3,6.9-0.6,7.1-1.4c0.4-0.4,0.7-0.8,1-1.3c0.1-0.2,0.2-0.3,0.3-0.5l0.1-0.3l0.1-0.1l0.1-0.2c0,0-0.1,0.3-0.1,0.6
			c-0.1,0.6-0.2,1.3-0.3,2c-0.2,1.4-0.3,2.9-0.4,4.4c-0.3,5.9,0.1,11.9,1.2,17.8c1,5.6,2.9,11,5.9,14.6c1.4,1.7,3.1,3,5.2,3.9
			c1,0.4,2.1,0.7,3.2,0.9c0.6,0.1,1.1,0.1,1.7,0.1h0.8c0.3,0,0.5-0.1,0.8-0.1c2-0.2,3.8-1,5.3-2.2c1.8-1.6,3.3-3.6,4.3-5.8
			c2.5-4.7,4-10.6,5.1-16.6c1-6.1,1.6-12.2,1.8-18.4c0.1-3.1,0.2-6.2,0.1-9.4c0-1.6,0-3.1-0.1-4.7l-0.1-2.3v-0.4c0-0.2,0-0.4,0-0.6
			c0.1-0.5,0.2-0.9,0.3-1.3c0.9-2.7,3.5-4.4,6.4-4.1c0.9,0.1,1.8,0.4,2.6,0.9c0.8,0.5,1.5,1.1,2,1.9c0.1,0.2,0.2,0.4,0.3,0.5
			l0.2,0.3l0,0.1l0.1,0.3c2.3,5.4,5.4,10.4,9.1,14.9c3.6,4.3,8.3,7.6,13.7,9.5c5.4,1.8,11.5,1.6,17.6,0.3l0,0
			c0.9-0.1,1.7,0.5,1.9,1.4c0.1,0.6-0.2,1.3-0.8,1.6c-3,1.6-6.3,2.8-9.6,3.5c-0.9,0.2-1.7,0.3-2.6,0.4s-1.8,0.1-2.7,0.2
			c-1.8,0-3.6-0.1-5.4-0.3l-1.4-0.2l-1.3-0.3c-0.9-0.2-1.8-0.5-2.6-0.7c-1.7-0.6-3.4-1.3-5-2.2c-1.6-0.9-3.1-1.8-4.6-2.9
			c-1.4-1.1-2.8-2.2-4.1-3.5c-5-4.9-9.1-10.7-12.1-17.1l-0.1-0.3l-0.1-0.1c0-0.1,0,0,0.1,0.2c0.1,0.1,0.1,0.3,0.2,0.4
			c0.4,0.6,0.9,1.1,1.5,1.5c0.6,0.4,1.3,0.6,2.1,0.7c1.4,0.1,2.7-0.4,3.7-1.3c0.5-0.5,1-1.2,1.2-1.9c0.1-0.3,0.2-0.7,0.2-1
			c0-0.2,0-0.3,0-0.5c0-0.2,0-0.4,0-0.2l0.1,2.5c0.1,1.6,0.2,3.3,0.2,4.9c0.1,3.3,0.1,6.6,0.1,9.9c-0.1,6.7-0.6,13.4-1.5,20
			c-0.5,3.4-1.2,6.8-2.1,10.1c-0.9,3.5-2.2,6.9-3.8,10.2c-1.7,3.6-4.2,6.9-7.2,9.6c-1.7,1.5-3.6,2.7-5.6,3.6l-1.6,0.6
			c-0.5,0.2-1.1,0.3-1.6,0.5c-0.5,0.2-1.1,0.3-1.6,0.4l-1.6,0.2c-0.6,0.1-1.1,0.1-1.6,0.1H254c-1,0-2.1-0.1-3.1-0.2
			c-2.1-0.3-4.1-0.8-6.1-1.6c-4-1.6-7.5-4.1-10.2-7.4c-2.5-3-4.6-6.4-6-10.1c-1.3-3.4-2.3-6.9-3-10.5c-1.2-6.8-1.7-13.8-1.4-20.7
			c0.1-1.7,0.2-3.5,0.4-5.2c0.1-0.9,0.2-1.8,0.4-2.8c0.1-0.5,0.2-1,0.4-1.8c0.1-0.2,0.1-0.4,0.2-0.8l0.1-0.3l0.2-0.4
			c0.1-0.2,0.2-0.4,0.3-0.7c0.3-0.5,0.7-1,1.1-1.4c0.3-0.8,3.6-2.7,7.3-1.4c3.1,1.7,2.9,2.6,3.4,3.3c0.2,0.4,0.3,0.7,0.4,1.1
			c0.1,0.2,0.1,0.4,0.1,0.5l0.1,0.4v0.3l0.1,0.4c0.1,0.9,0,1.4,0,1.9l-0.1,1.4c-0.1,0.9-0.1,1.9-0.2,2.8c-0.2,1.8-0.5,3.6-0.9,5.3
			c-1.4,6.9-3.8,13.6-7.1,19.9c-1.7,3.3-3.9,6.4-6.3,9.2c-1.3,1.5-2.8,2.9-4.4,4.1c-1.7,1.4-3.6,2.5-5.6,3.4
			c-1.1,0.5-2.2,0.8-3.3,1.1c-0.6,0.2-1.1,0.3-1.7,0.4l-0.9,0.1l-0.5,0.1h-0.6c-1.7,0.1-3.3-0.1-4.9-0.7c-1.5-0.5-2.9-1.4-4.1-2.4
			c-1.8-1.6-3.3-3.6-4.4-5.9c-0.9-1.8-1.6-3.6-2.2-5.5c-1-3.4-1.7-6.9-2.1-10.4c-0.4-3.4-0.7-6.8-0.9-10.1s-0.2-6.7-0.2-10
			s0.1-6.6,0.4-10c0.2-3.3,3-5.9,6.3-5.7c3.3,0.2,5.9,3,5.7,6.3L200.9,143.1z"/>
		
			<linearGradient id="SVGID_1_" gradientUnits="userSpaceOnUse" x1="30.9229" y1="211.2501" x2="369.0529" y2="211.2501" gradientTransform="matrix(1 0 0 -1 0 380)">
			<stop  offset="0" style="stop-color:#7CA092"/>
			<stop  offset="1" style="stop-color:#235C9C"/>
		</linearGradient>
		<path class="st3" d="M44.2,41.7c5.2,18.8,12.6,36.9,21.8,54c9.2,17.1,19.8,33.3,31.8,48.5c11.9,15.2,24.9,29.6,38.9,42.9
			c13.9,13.3,28.8,25.5,44.5,36.5c7.9,5.4,15.9,10.6,24.1,15.3l6.2,3.5l6.3,3.4c2.1,1.1,4.2,2.1,6.3,3.2s4.2,2.1,6.4,3.1
			c4.2,2.1,8.6,3.9,12.9,5.7l6.6,2.6c2.2,0.9,4.3,1.6,6.5,2.4c8.5,3,17.3,5.2,26.2,6.7c17.2,2.8,34,3.3,47-5.9
			c7-4.8,12.8-11.3,16.8-18.9c1.1-2,2-4,2.9-6.1c0.9-2.1,1.7-4.3,2.4-6.5c1.4-4.6,2.5-9.3,3.3-14l0,0c0.2-1,1.2-1.7,2.2-1.5
			c0.7,0.2,1.3,0.7,1.5,1.5c1.1,5,1.6,10.2,1.7,15.3c0,2.6-0.1,5.3-0.4,7.9c-0.3,2.7-0.7,5.4-1.4,8c-1.3,5.4-3.3,10.6-6,15.5
			c-2.8,4.9-6.2,9.5-10.2,13.6c-4.2,4.2-9,7.8-14.3,10.6c-5.3,2.7-10.9,4.7-16.6,6c-5.6,1.2-11.3,1.7-17,1.6
			c-5.5-0.1-11-0.7-16.4-1.7c-10.4-2.1-20.5-5.3-30.2-9.4c-2.4-1-4.8-2-7.1-3.1l-6.9-3.2c-4.6-2.3-9.1-4.5-13.6-7
			c-2.2-1.2-4.5-2.4-6.6-3.7s-4.4-2.5-6.6-3.9l-6.4-4l-6.4-4.3c-8.4-5.7-16.4-11.7-24.3-18.1c-15.5-12.7-30-26.6-43.4-41.4
			c-13.5-14.7-25.9-30.2-37.1-46.7c-11.3-16.3-21.1-33.6-29.3-51.7c-8.3-18-14.5-36.8-18.6-56.2c-0.1-0.7,0.3-1.4,1-1.5
			C43.4,40.7,44,41.1,44.2,41.7L44.2,41.7z"/>
		
			<linearGradient id="SVGID_2_" gradientUnits="userSpaceOnUse" x1="57.8829" y1="89.3029" x2="236.7029" y2="89.3029" gradientTransform="matrix(1 0 0 -1 0 380)">
			<stop  offset="0" style="stop-color:#7CA092"/>
			<stop  offset="1" style="stop-color:#235C9C"/>
		</linearGradient>
		<path class="st4" d="M65.9,235.7c3.9,7.6,8.4,14.9,13.3,21.8c1.2,1.8,2.5,3.5,3.7,5.2s2.6,3.4,3.9,5s2.7,3.3,4.1,4.9
			s2.8,3.2,4.2,4.7c5.7,6.2,11.9,12,18.5,17.3c6.5,5.3,13.4,10.1,20.7,14.3c14.3,8.4,29.8,14.6,45.9,18.4c8,1.9,16.1,3.1,24.3,3.7
			c2,0.1,4.1,0.2,6.1,0.4s4.1,0.2,6.1,0.5s4.1,0.4,6.2,0.7c2.1,0.2,4.2,0.6,6.2,1.1l0.3,0.1c2.8,0.7,4.4,3.5,3.7,6.3
			c-0.4,1.7-1.7,3-3.3,3.6c-2.2,0.7-4.4,1.3-6.6,1.7c-2.2,0.3-4.4,0.6-6.7,0.8s-4.5,0.1-6.7,0s-4.5-0.3-6.7-0.6
			c-8.9-1-17.7-2.8-26.3-5.4c-17-5.1-33.1-13-47.6-23.4c-7.1-5.1-13.9-10.7-20.2-16.8c-6.3-6-12.2-12.5-17.6-19.4
			c-1.3-1.7-2.7-3.4-4-5.2s-2.6-3.5-3.8-5.3c-2.5-3.5-4.8-7.2-7.1-10.9c-4.5-7.4-8.5-15-12.1-22.8c-0.2-0.4,0-0.8,0.4-1
			C65.2,235.2,65.6,235.3,65.9,235.7L65.9,235.7z"/>
		
			<linearGradient id="SVGID_3_" gradientUnits="userSpaceOnUse" x1="37.9129" y1="146.6423" x2="294.3029" y2="146.6423" gradientTransform="matrix(1 0 0 -1 0 380)">
			<stop  offset="0" style="stop-color:#7CA092"/>
			<stop  offset="1" style="stop-color:#235C9C"/>
		</linearGradient>
		<path class="st5" d="M48.1,144.8c1.9,6.2,4.3,12.2,7.1,18c2.7,5.9,5.7,11.6,9,17.2c6.5,11.2,13.9,21.8,22,31.8
			c8.1,10,17,19.3,26.5,28c9.5,8.7,19.5,16.9,29.9,24.5c10.3,7.5,21.2,14.2,32.6,20c11.3,5.7,23.1,10.3,35.3,13.7
			c6,1.7,12.1,3,18.3,4.1c6.4,1,12.7,1.9,19,2.5s12.4,1,18.6,1.2s12.3,0.1,18.7,1.4h0.2c3.7,0.7,6.1,4.2,5.5,7.9
			c-0.4,2.3-2,4.3-4.3,5.1c-6.6,2.5-13.5,3.1-20.4,3c-6.8-0.1-13.7-0.8-20.4-2c-6.7-1.2-13.2-2.6-19.6-4c-6.7-1.4-13.2-3.2-19.7-5.4
			c-25.8-8.6-49.3-22.3-70.1-39c-10.3-8.3-20.2-17.2-29.5-26.6c-9.4-9.4-18.1-19.4-26-30.1c-7.9-10.6-14.9-21.9-21-33.6
			c-3-5.9-5.8-11.9-8.3-18c-2.6-6.1-4.7-12.4-6.4-18.8c-0.2-0.9,0.4-1.7,1.3-1.9C47.1,143.6,47.9,144,48.1,144.8L48.1,144.8z"/>
		<g class="st6">
			
				<image style="overflow:visible;enable-background:new    ;" width="392" height="379" xlink:href="774E1A86791AFE32.png"  transform="matrix(1 0 0 1 5.4129 3.8663)">
			</image>
		</g>
	</g>
</g>
<rect x="-156" y="-89" class="st7" width="102" height="103"/>
<rect x="-157.6" y="29.1" class="st8" width="102" height="103"/>
</svg>
