<svg xmlns="http://www.w3.org/2000/svg" viewBox="0 0 1060.65 388.63"><defs><style>.cls-1{fill:none;stroke:#fff;stroke-linecap:round;stroke-miterlimit:10;stroke-width:6.66px;}.cls-2,.cls-4{fill:#fff;}.cls-3{opacity:0.08;}.cls-4{font-size:90.98px;font-family:CantigaW01-Regular;}.cls-5{letter-spacing:-0.01em;}.cls-6{letter-spacing:0em;}.cls-7{letter-spacing:-0.04em;}</style></defs><g id="Layer_2" data-name="Layer 2"><g id="Layer_1-2" data-name="Layer 1"><line class="cls-1" x1="106.58" y1="64.27" x2="229.15" y2="64.27"/><path class="cls-2" d="M152.88,20.35c.08,19.44-.48,38.86-1.19,58.26s-1.71,38.81-2.9,58.2l-.94,14.54-.11,1.82-.05.69c0,.21,0,.42,0,.63a14.87,14.87,0,0,0,.18,2.5,14.27,14.27,0,0,0,1.61,4.69,13,13,0,0,0,3.11,3.81,11.84,11.84,0,0,0,4.21,2.29c3.11,1,7.11.6,11.15-.67A56.09,56.09,0,0,0,180,161.34a119.66,119.66,0,0,0,11.54-8.15c7.5-5.93,14.59-12.55,21.73-19.24a.13.13,0,0,1,.18,0,.12.12,0,0,1,0,.16c-2.63,4.13-5.4,8.17-8.35,12.11s-6.06,7.77-9.44,11.41a105.27,105.27,0,0,1-10.86,10.43,59.69,59.69,0,0,1-13.26,8.47,36.33,36.33,0,0,1-8.12,2.55,25.17,25.17,0,0,1-9.24,0,22.82,22.82,0,0,1-8.92-3.77,25.61,25.61,0,0,1-6.69-6.84A27.74,27.74,0,0,1,134.15,155c0-.4-.05-.8-.05-1.2v-1.12l0-1.82.17-14.57q.41-29.13,1.5-58.25c.76-19.4,1.67-38.8,3.21-58.18a7,7,0,0,1,13.89.52Z"/><path class="cls-2" d="M202.71,130.3c-.06,1.85-.09,3.9-.1,5.86s0,4,0,6q.12,6,.52,11.84c.27,3.92.66,7.8,1.22,11.57a72.35,72.35,0,0,0,2.35,10.71,26.51,26.51,0,0,0,1.74,4.37,7.79,7.79,0,0,0,1.66,2.33c.16.14.16.1.06.05s-.25-.06-.22-.07h0l.16,0,.4-.08.41-.06.4-.12a9.49,9.49,0,0,0,1.64-.58,15.59,15.59,0,0,0,3.37-2.12,24.29,24.29,0,0,0,3.32-3.21,46,46,0,0,0,5.8-8.56,78.92,78.92,0,0,0,7.43-20.75c.38-1.79.66-3.58.88-5.31.11-.88.18-1.73.24-2.56l.05-1.21c0-.35,0-.79,0-.66v.16l0,.18.05.29c0,.16.08.32.13.48a6.92,6.92,0,0,0,.47,1.25c.68.9.38,1.89,4.26,4.05,4.58,1.68,8.75-.8,9.1-1.72a8.05,8.05,0,0,0,1.29-1.64,7.54,7.54,0,0,0,.35-.67c.06-.11.1-.23.15-.34l.07-.19.08-.25s-.09.38-.15.73c-.13.75-.26,1.64-.36,2.53-.21,1.8-.35,3.69-.45,5.58a99.69,99.69,0,0,0,1.31,22.52,57.53,57.53,0,0,0,2.82,10.29,29.89,29.89,0,0,0,4.69,8.34,16.81,16.81,0,0,0,6.56,5,18,18,0,0,0,4.06,1.11c.36.05.73.11,1.1.14s.69,0,1,0l1,0c.34,0,.64-.07,1-.09a12.14,12.14,0,0,0,6.78-2.84,24.29,24.29,0,0,0,5.54-7.32,54,54,0,0,0,4-10,103.31,103.31,0,0,0,2.56-11.11,176.92,176.92,0,0,0,2.35-23.43c.16-4,.21-7.95.18-11.94,0-2-.05-4-.12-6l-.11-3v-.5c0-.27,0-.53,0-.79a8.53,8.53,0,0,1,.37-1.69,7.85,7.85,0,0,1,8.09-5.28,7.84,7.84,0,0,1,3.36,1.1,7.51,7.51,0,0,1,1.44,1.12,7.78,7.78,0,0,1,1.08,1.33c.14.23.27.45.39.69l.2.41.07.17.14.32a73.91,73.91,0,0,0,11.65,18.94,44.26,44.26,0,0,0,7.95,7.25,34.16,34.16,0,0,0,9.48,4.76c6.82,2.3,14.6,2.06,22.41.45h0a2.08,2.08,0,0,1,1.39,3.87,45.71,45.71,0,0,1-12.26,4.41c-1.09.23-2.21.35-3.32.52s-2.25.19-3.39.27a40.77,40.77,0,0,1-6.87-.42l-1.72-.28-1.69-.39c-1.15-.24-2.24-.62-3.36-1s-2.18-.81-3.26-1.26-2.13-.95-3.14-1.52a50.86,50.86,0,0,1-5.87-3.7,58.53,58.53,0,0,1-5.23-4.43,56.78,56.78,0,0,1-4.64-4.94,63.19,63.19,0,0,1-4.08-5.33,79.59,79.59,0,0,1-6.66-11.52l-.18-.37-.09-.19c0-.11,0,0,.11.25a5.24,5.24,0,0,0,.3.51,6,6,0,0,0,2,1.92,6,6,0,0,0,7.39-.83,6.17,6.17,0,0,0,1.53-2.43,5.92,5.92,0,0,0,.29-1.32c0-.2,0-.4,0-.6s0-.44,0-.31l.19,3.15c.12,2.1.2,4.19.27,6.29q.21,6.3.11,12.62a191.28,191.28,0,0,1-1.95,25.46,119.14,119.14,0,0,1-2.66,12.87,68.65,68.65,0,0,1-4.8,12.93,39.13,39.13,0,0,1-9.13,12.19l-1.64,1.29a13.25,13.25,0,0,1-1.72,1.21,24.94,24.94,0,0,1-3.78,2l-2,.83a21.28,21.28,0,0,1-2.07.6c-.69.18-1.39.37-2.09.52l-2.1.26c-.69.07-1.41.19-2.09.19h-2c-.68,0-1.38,0-2-.07s-1.3-.13-1.95-.22a34.06,34.06,0,0,1-7.78-2,33.23,33.23,0,0,1-13-9.42A46,46,0,0,1,237.9,187a70.74,70.74,0,0,1-3.81-13.32,115.82,115.82,0,0,1-1.71-26.39c.1-2.2.25-4.4.5-6.67.13-1.14.27-2.28.49-3.55.12-.65.22-1.28.48-2.26.08-.27.15-.53.31-1l.14-.37.22-.51a7.77,7.77,0,0,1,.44-.84,8.59,8.59,0,0,1,1.41-1.8c.39-1,4.62-3.48,9.26-1.77,3.94,2.19,3.67,3.24,4.38,4.19a9.11,9.11,0,0,1,.54,1.43c.06.22.12.45.17.67l.08.47.06.38.06.54c.09,1.15.06,1.73.06,2.41l-.07,1.85c-.07,1.21-.17,2.4-.31,3.56-.27,2.33-.63,4.59-1.11,6.8a94.65,94.65,0,0,1-3.68,12.93,89.2,89.2,0,0,1-5.49,12.37,61.83,61.83,0,0,1-8,11.68,39.74,39.74,0,0,1-5.53,5.27,32.05,32.05,0,0,1-7.07,4.25,27.5,27.5,0,0,1-4.16,1.41l-1.09.27-1.11.19-1.11.17c-.2,0-.34.06-.6.07l-.75.05a16,16,0,0,1-6.25-.91,16.42,16.42,0,0,1-5.2-3.05,24,24,0,0,1-5.62-7.46,44,44,0,0,1-2.75-7,83,83,0,0,1-2.69-13.3c-.56-4.34-.9-8.62-1.11-12.87s-.25-8.48-.22-12.7c0-2.11.07-4.22.14-6.32s.16-4.17.31-6.41a7.62,7.62,0,0,1,15.22.73Z"/><path class="cls-2" d="M3.2,1.2A334.83,334.83,0,0,0,31,69.92,428.38,428.38,0,0,0,71.5,131.71a508,508,0,0,0,49.56,54.59,476.81,476.81,0,0,0,56.68,46.45c10,6.89,20.24,13.44,30.7,19.5l7.89,4.47,8,4.26c2.65,1.44,5.37,2.73,8.05,4.1s5.41,2.65,8.13,3.92c5.42,2.61,10.95,5,16.46,7.33l8.35,3.35c2.77,1.09,5.53,2.07,8.31,3a203.69,203.69,0,0,0,33.36,8.5c11,1.83,21.76,2.8,31.91,2a55.82,55.82,0,0,0,27.9-9.43,68.06,68.06,0,0,0,21.42-24c5.38-9.92,8.65-21.65,10.89-33.94a2.41,2.41,0,0,1,4.72-.07A101,101,0,0,1,406,245.3a84,84,0,0,1-2.21,20.21,77.19,77.19,0,0,1-7.68,19.73,82.92,82.92,0,0,1-12.94,17.27A72.3,72.3,0,0,1,364.93,316a83.29,83.29,0,0,1-21.19,7.58c-14.54,3.11-29,2.51-42.55,0s-26.28-7-38.51-12c-3.05-1.26-6.1-2.57-9.05-3.94l-8.82-4.1c-2.93-1.38-5.81-2.88-8.7-4.32s-5.75-3-8.59-4.53a373,373,0,0,1-33-20.14q-16-10.89-30.88-23c-9.91-8.12-19.43-16.63-28.67-25.41s-18.09-17.9-26.63-27.29a532,532,0,0,1-47.25-59.42A438,438,0,0,1,23.71,73.5,340.17,340.17,0,0,1,0,2,1.64,1.64,0,0,1,1.3,0,1.64,1.64,0,0,1,3.2,1.19Z"/><path class="cls-2" d="M30.8,248.1a247.82,247.82,0,0,0,16.92,27.79c1.5,2.26,3.17,4.39,4.76,6.57s3.29,4.29,5,6.41,3.45,4.16,5.2,6.21,3.57,4,5.4,6a219,219,0,0,0,49.81,40.15,211.65,211.65,0,0,0,58.42,23.43,204.92,204.92,0,0,0,30.88,4.77c2.6.15,5.2.26,7.79.49s5.19.32,7.79.6,5.21.47,7.84.88a58.49,58.49,0,0,1,8,1.38l.34.09a6.56,6.56,0,0,1,.5,12.55,63.57,63.57,0,0,1-8.38,2.14c-2.83.44-5.67.75-8.52,1s-5.71.12-8.56,0-5.69-.44-8.53-.75A196.73,196.73,0,0,1,171.94,381a203.43,203.43,0,0,1-60.54-29.79,238.43,238.43,0,0,1-48.05-46.06c-1.71-2.17-3.43-4.33-5-6.58s-3.28-4.43-4.81-6.73-3.16-4.51-4.61-6.85-3-4.6-4.39-7a290.47,290.47,0,0,1-15.37-29.08.93.93,0,0,1,.45-1.23A.94.94,0,0,1,30.8,248.1Z"/><path class="cls-2" d="M8.19,132.4a172.21,172.21,0,0,0,9,22.87c3.46,7.46,7.28,14.76,11.4,21.87a317.23,317.23,0,0,0,28,40.46,329,329,0,0,0,33.78,35.64,456.32,456.32,0,0,0,38,31.17,300.5,300.5,0,0,0,41.45,25.46c7.23,3.61,14.59,6.93,22.08,9.88s15.09,5.51,22.79,7.68a221.31,221.31,0,0,0,23.32,5.18c8.13,1.32,16.22,2.42,24.2,3.12s15.85,1.21,23.69,1.49,15.6.17,23.78,1.72l.18,0a8.62,8.62,0,0,1,6.86,10.08,8.71,8.71,0,0,1-5.3,6.41,53.7,53.7,0,0,1-12.86,3.19,86.39,86.39,0,0,1-13.16.62,162.57,162.57,0,0,1-26-2.57c-8.5-1.47-16.78-3.34-25-5.08a240.66,240.66,0,0,1-25.06-6.82c-32.8-10.89-62.78-28.43-89.19-49.64a466.54,466.54,0,0,1-37.57-33.82A340,340,0,0,1,49.6,223.06a316.79,316.79,0,0,1-26.73-42.78q-5.81-11.21-10.55-22.9a175.48,175.48,0,0,1-8.1-23.94,2.06,2.06,0,0,1,4-1.06Z"/><text class="cls-4" transform="translate(434.17 107.89)"><tspan xml:space="preserve">Building  </tspan><tspan x="0" y="109.18">the Futu</tspan><tspan class="cls-5" x="303.14" y="109.18">r</tspan><tspan class="cls-6" x="334.98" y="109.18" xml:space="preserve">e  </tspan><tspan x="0" y="218.35">with </tspan><tspan class="cls-7" x="184.96" y="218.35">T</tspan><tspan class="cls-6" x="224.17" y="218.35" xml:space="preserve">echnology  </tspan></text></g></g></svg>